<svg width="1440" height="450" viewBox="0 0 1440 450" fill="none" xmlns="http://www.w3.org/2000/svg">
<path d="M-15.5863 426.445L72.6037 412.431C160.759 398.222 337.191 370.488 519.135 373.519C701.079 376.549 888.71 411.322 1069.25 406.54C1249.8 401.757 1423.43 358.396 1510.19 336.373L1596.98 314.546L1591.38 283.292L1501.32 286.905C1411.27 290.517 1231.16 297.741 1051.06 304.965C870.95 312.189 690.843 319.414 510.737 326.638C330.63 333.862 150.523 341.086 60.4694 344.699L-29.584 348.311L-15.5863 426.445Z" fill="#FFDC8A"/>
<rect x="-121.419" y="93.0119" width="1589.84" height="254.988" fill="#FFDC8A"/>
<g clip-path="url(#clip0_162_1271)">
<path d="M3.59526 95.0498L83.3948 84.1998C163.174 73.1792 322.804 51.735 485.61 57.1547C648.416 62.5744 814.501 95.7107 976.501 94.3078C1138.5 92.9049 1296.52 57.8156 1375.49 39.9725L1454.48 22.2999L1467.39 131.461L1386.52 133.228C1305.64 134.996 1143.9 138.531 982.149 142.066C820.401 145.601 658.654 149.136 496.906 152.671C335.159 156.206 173.412 159.74 92.5379 161.508L11.6642 163.275L3.59526 95.0498Z" fill="#FFDC8A"/>
</g>
<defs>
<clipPath id="clip0_162_1271">
<rect width="1834.62" height="97.1552" fill="white" transform="matrix(0.99963 -0.0271969 0.121632 0.992575 -168 50.3179)"/>
</clipPath>
</defs>
</svg>
