<svg width="37" height="34" viewBox="0 0 37 34" fill="none" xmlns="http://www.w3.org/2000/svg">
<g clip-path="url(#clip0_272_1236)">
<mask id="mask0_272_1236" style="mask-type:luminance" maskUnits="userSpaceOnUse" x="0" y="0" width="37" height="34">
<path d="M0.330078 0.7994H36.2531V33.1886H0.330078V0.7994Z" fill="white"/>
</mask>
<g mask="url(#mask0_272_1236)">
<path d="M35.3073 11.8801C35.3073 8.25591 32.3379 5.91366 27.7445 5.91366C27.4938 5.91366 27.2533 6.00346 27.0761 6.16331C26.8988 6.32316 26.7992 6.53996 26.7992 6.76601C26.7992 6.99207 26.8988 7.20887 27.0761 7.36871C27.2533 7.52856 27.4938 7.61836 27.7445 7.61836C29.4499 7.61836 33.4166 8.03345 33.4166 11.8801C33.4166 14.3357 31.6668 15.4361 29.5842 15.8793C29.4291 15.8171 29.2741 15.754 29.1039 15.7157C25.7943 14.9699 24.9085 16.1418 19.2364 16.1418C15.2991 16.1418 14.0947 12.3855 12.7778 10.0851C12.4318 8.34115 11.4855 5.06132 10.7283 5.06132C10.1517 5.06132 9.40011 6.78902 8.90097 8.52355C8.27987 7.2152 7.46971 5.91366 6.94694 5.91366C6.2748 5.91366 5.60455 8.06584 5.27273 9.92481C3.50777 11.0107 2.22021 12.585 2.22021 14.4371C2.22021 16.9942 8.83763 18.6989 8.83763 18.6989C10.8399 19.6399 11.4307 21.0573 11.962 22.3435C13.9113 27.7849 13.6768 32.3364 14.9824 32.3364C16.2879 32.3364 17.3457 29.4751 17.3457 25.9438C17.3457 25.7631 17.341 25.5858 17.3353 25.4094C20.3179 25.3233 23.7211 24.4931 26.5903 25.1597C27.8759 28.9893 28.185 32.3364 29.1625 32.3364C30.0682 32.3364 30.8547 29.1111 31.2508 25.9575C31.2801 25.8373 31.3018 25.7043 31.3018 25.5373L31.3104 25.4452C31.3416 25.1733 31.369 24.9031 31.3935 24.6372L31.8804 19.8708C31.8804 18.923 31.6403 17.9812 31.1676 17.226C33.841 16.3302 35.3073 14.4874 35.3073 11.8801Z" fill="#C1694F"/>
<path d="M8.83812 12.7324C8.83812 12.9584 8.73852 13.1752 8.56124 13.3351C8.38395 13.4949 8.1435 13.5847 7.89278 13.5847C7.64206 13.5847 7.40161 13.4949 7.22432 13.3351C7.04704 13.1752 6.94744 12.9584 6.94744 12.7324C6.94744 12.5063 7.04704 12.2895 7.22432 12.1297C7.40161 11.9698 7.64206 11.88 7.89278 11.88C8.1435 11.88 8.38395 11.9698 8.56124 12.1297C8.73852 12.2895 8.83812 12.5063 8.83812 12.7324ZM4.11142 13.052C3.16607 13.5847 3.16607 15.2894 2.6934 15.2894C2.22073 15.2894 1.27539 14.2871 1.27539 13.052C1.27539 11.8161 5.27324 12.3966 4.11142 13.052Z" fill="#292F33"/>
<path d="M4.11131 15.7156C4.00487 15.7156 3.90156 15.6832 3.81808 15.6236C3.73461 15.5641 3.67587 15.4809 3.65136 15.3875C3.62686 15.2941 3.63804 15.196 3.68308 15.109C3.72813 15.0221 3.8044 14.9514 3.89956 14.9084C5.92353 13.9964 9.7361 14.8402 9.89775 14.876C10.0194 14.9035 10.1239 14.9734 10.1883 15.0703C10.2528 15.1673 10.2718 15.2833 10.2414 15.393C10.2109 15.5026 10.1334 15.5968 10.0259 15.6549C9.91835 15.713 9.78963 15.7303 9.66803 15.7028C9.63211 15.6943 6.03225 14.8999 4.32212 15.6704C4.25672 15.7001 4.18453 15.7155 4.11131 15.7156Z" fill="#662113"/>
<path d="M8.83805 17.4203C8.74484 17.4202 8.65374 17.3953 8.57619 17.3487C8.54877 17.3316 5.83659 15.7156 4.11134 15.7156C3.98598 15.7156 3.86576 15.6707 3.77711 15.5908C3.68847 15.5108 3.63867 15.4024 3.63867 15.2894C3.63867 15.1764 3.68847 15.068 3.77711 14.9881C3.86576 14.9081 3.98598 14.8632 4.11134 14.8632C6.12208 14.8632 8.97985 16.5671 9.10085 16.6395C9.1853 16.6903 9.24937 16.7642 9.2836 16.8504C9.31783 16.9365 9.3204 17.0303 9.29093 17.1179C9.26145 17.2054 9.2015 17.2821 9.11994 17.3366C9.03838 17.3911 8.93954 17.4204 8.83805 17.4203Z" fill="#662113"/>
</g>
</g>
<defs>
<clipPath id="clip0_272_1236">
<rect width="35.923" height="32.3892" fill="white" transform="translate(0.330078 0.799316)"/>
</clipPath>
</defs>
</svg>
