<svg width="37" height="29" viewBox="0 0 37 29" fill="none" xmlns="http://www.w3.org/2000/svg">
<g clip-path="url(#clip0_272_1289)">
<mask id="mask0_272_1289" style="mask-type:luminance" maskUnits="userSpaceOnUse" x="3" y="0" width="37" height="29">
<path d="M3.14844 0.809273H39.0335V28.8964H3.14844V0.809273Z" fill="white"/>
</mask>
<g mask="url(#mask0_272_1289)">
<path d="M31.4789 13.2927C31.4789 13.2927 37.145 13.2927 35.2563 8.85788C34.3119 6.64048 36.2006 8.11875 37.145 9.59702C38.0893 11.0753 39.0336 15.5101 32.4232 14.771C25.8128 14.0318 31.4789 13.2927 31.4789 13.2927Z" fill="#662113"/>
<path d="M35.2169 16.213C35.2424 15.9816 35.2566 15.7717 35.2566 15.5913C35.2566 15.105 35.1971 14.8522 35.0951 14.7613C34.249 12.5838 29.8804 12.6208 24.8461 12.6333C22.0254 12.6163 20.1471 9.60289 20.1471 8.93914C20.1471 5.24348 15.5689 4.36982 13.0645 6.72174C10.7037 8.93914 5.98193 6.6944 5.98193 8.93914C5.98193 12.6348 9.15304 14.8522 13.0645 14.8522C13.6764 14.8522 14.7039 14.7421 15.907 14.5706C16.7956 15.788 17.2196 17.4392 17.3141 17.8087C17.3367 17.8967 17.3613 17.9824 17.3849 18.0697C17.7957 21.4845 19.9167 28.1566 21.0914 28.1566C22.1019 28.1566 22.6789 26.3206 22.8876 24.1653C23.7243 24.3575 24.6913 24.4609 25.8132 24.4609C26.8633 24.4609 27.8312 24.2784 28.7198 23.9739C28.9134 26.2112 29.4942 28.1566 30.5349 28.1566C31.755 28.1566 34.826 19.6566 35.215 16.224L35.2169 16.213Z" fill="#D99E82"/>
<path d="M7.87063 9.30934C7.87063 9.92208 6.76481 10.418 5.98194 10.418C5.19908 10.418 4.56543 9.55251 4.56543 8.93977C4.56543 8.32703 5.19908 8.20063 5.98194 8.20063C7.87063 8.20063 7.87063 8.69659 7.87063 9.30934ZM21.0914 10.418C21.0914 12.6635 19.8222 13.005 18.2584 13.005C16.6936 13.005 15.4254 12.6635 15.4254 10.418C15.4254 8.17255 15.7493 5.2441 17.3141 5.2441C18.8788 5.2441 21.0914 8.17255 21.0914 10.418Z" fill="#662113"/>
<path d="M14.4805 8.20069C14.4805 8.39672 14.381 8.58472 14.2039 8.72333C14.0268 8.86195 13.7866 8.93982 13.5361 8.93982C13.2857 8.93982 13.0455 8.86195 12.8684 8.72333C12.6913 8.58472 12.5918 8.39672 12.5918 8.20069C12.5918 8.00465 12.6913 7.81665 12.8684 7.67804C13.0455 7.53942 13.2857 7.46155 13.5361 7.46155C13.7866 7.46155 14.0268 7.53942 14.2039 7.67804C14.381 7.81665 14.4805 8.00465 14.4805 8.20069Z" fill="#292F33"/>
<path d="M33.3672 15.9616C33.3672 16.9816 32.099 17.8095 30.5342 17.8095C28.9694 17.8095 27.7012 16.9816 27.7012 15.9616C27.7012 14.9409 28.9694 14.1138 30.5342 14.1138C32.099 14.1138 33.3672 14.9409 33.3672 15.9616ZM26.7568 15.2225C26.7567 15.5166 26.6073 15.7987 26.3415 16.0066C26.0756 16.2145 25.7152 16.3313 25.3394 16.3312C24.9636 16.3311 24.6032 16.2141 24.3375 16.0061C24.0719 15.798 23.9227 15.5159 23.9229 15.2217C23.9229 15.0761 23.9596 14.9319 24.0309 14.7974C24.1022 14.6628 24.2066 14.5406 24.3382 14.4376C24.4698 14.3347 24.6261 14.253 24.798 14.1973C24.97 14.1416 25.1542 14.113 25.3403 14.113C25.5264 14.1131 25.7106 14.1418 25.8825 14.1976C26.0544 14.2534 26.2106 14.3351 26.3421 14.4381C26.4737 14.5412 26.578 14.6635 26.6491 14.798C26.7203 14.9326 26.7569 15.0768 26.7568 15.2225ZM28.6455 18.9182C28.6454 19.0638 28.6087 19.208 28.5375 19.3425C28.4662 19.4771 28.3618 19.5993 28.2302 19.7023C28.0985 19.8052 27.9423 19.8869 27.7703 19.9426C27.5984 19.9983 27.4141 20.0269 27.2281 20.0269C27.042 20.0268 26.8577 19.9981 26.6858 19.9423C26.5139 19.8865 26.3578 19.8048 26.2262 19.7018C26.0947 19.5987 25.9904 19.4764 25.9192 19.3419C25.8481 19.2073 25.8115 19.0631 25.8115 18.9174C25.8117 18.6233 25.9611 18.3412 26.2269 18.1333C26.4927 17.9254 26.8532 17.8086 27.229 17.8087C27.6048 17.8088 27.9652 17.9258 28.2308 18.1338C28.4965 18.3419 28.6456 18.624 28.6455 18.9182Z" fill="#C1694F"/>
</g>
</g>
<defs>
<clipPath id="clip0_272_1289">
<rect width="35.8851" height="28.0871" fill="white" transform="matrix(-1 0 0 1 36.5005 0.809326)"/>
</clipPath>
</defs>
</svg>
