<svg width="1440" height="568" viewBox="0 0 1440 568" fill="none" xmlns="http://www.w3.org/2000/svg">
<path d="M11.756 538.237L98.9866 520.532C186.183 502.58 360.696 467.54 540.66 471.37C720.625 475.199 906.215 519.131 1084.79 513.089C1263.37 507.046 1435.12 452.264 1520.93 424.441L1606.78 396.864L1601.24 357.378L1512.16 361.942C1423.09 366.505 1244.94 375.632 1066.8 384.76C888.648 393.887 710.501 403.014 532.353 412.141C354.206 421.268 176.058 430.395 86.9844 434.959L-2.08936 439.522L11.756 538.237Z" fill="#FFDC8A"/>
<rect x="-86.5762" y="116.978" width="1559.84" height="319.55" fill="#FFDC8A"/>
<g clip-path="url(#clip0_90_28)">
<path d="M30.7286 119.553L109.66 105.845C188.572 91.9216 346.464 64.8291 507.5 71.6763C668.535 78.5235 832.813 120.388 993.05 118.615C1153.29 116.843 1309.58 72.5113 1387.7 49.9683L1465.83 27.6408L1478.6 165.555L1398.61 167.788C1318.61 170.021 1158.62 174.487 998.637 178.953C838.649 183.419 678.661 187.885 518.673 192.351C358.685 196.817 198.698 201.283 118.704 203.516L38.7098 205.749L30.7286 119.553Z" fill="#FFDC8A"/>
</g>
<defs>
<clipPath id="clip0_90_28">
<rect width="1815.09" height="122.394" fill="white" transform="matrix(0.999397 -0.0347303 0.0955001 0.995429 -139 63.0387)"/>
</clipPath>
</defs>
</svg>
