<svg width="1440" height="306" viewBox="0 0 1440 306" fill="none" xmlns="http://www.w3.org/2000/svg">
<path d="M1.00921 284.958L87.7701 273.652C174.488 262.18 348.075 239.818 528.502 243.647C708.93 247.477 896.416 278.328 1075.11 275.506C1253.8 272.683 1423.91 237.018 1508.89 218.894L1593.91 200.937L1586.96 174.33L1497.89 176.78C1408.82 179.231 1230.67 184.132 1052.52 189.034C874.373 193.935 696.226 198.836 518.078 203.737C339.931 208.638 161.783 213.54 72.7095 215.99L-16.3643 218.441L1.00921 284.958Z" fill="#FFDC8A"/>
<rect x="-96.2593" y="62.8167" width="1559.84" height="171.597" fill="#FFDC8A"/>
<g clip-path="url(#clip0_90_28)">
<path d="M21.0455 64.1993L99.977 56.8382C178.888 49.3614 336.781 34.8129 497.817 38.4898C658.852 42.1667 823.13 64.6477 983.367 63.6959C1143.6 62.7441 1299.9 38.9382 1378.01 26.8327L1456.15 14.843L1468.92 88.902L1388.92 90.1011C1308.93 91.3003 1148.94 93.6985 988.954 96.0968C828.966 98.495 668.978 100.893 508.99 103.291C349.002 105.69 189.015 108.088 109.021 109.287L29.0267 110.486L21.0455 64.1993Z" fill="#FFDC8A"/>
</g>
<defs>
<clipPath id="clip0_90_28">
<rect width="1814.31" height="66.4604" fill="white" transform="matrix(0.999826 -0.018658 0.175873 0.984413 -148.683 33.8515)"/>
</clipPath>
</defs>
</svg>
