<svg width="1440" height="373" viewBox="0 0 1440 373" fill="none" xmlns="http://www.w3.org/2000/svg">
<path d="M1.00921 348.474L87.7701 334.649C174.488 320.62 348.075 293.273 528.502 297.956C708.93 302.639 896.416 340.367 1075.11 336.915C1253.8 333.464 1423.91 289.849 1508.89 267.685L1593.91 245.725L1586.96 213.188L1497.89 216.184C1408.82 219.181 1230.67 225.175 1052.52 231.169C874.373 237.162 696.226 243.156 518.078 249.15C339.931 255.143 161.783 261.137 72.7095 264.134L-16.3643 267.131L1.00921 348.474Z" fill="#FFDC8A"/>
<rect x="-96.2593" y="76.8184" width="1559.84" height="209.845" fill="#FFDC8A"/>
<g clip-path="url(#clip0_90_28)">
<path d="M21.0455 78.5092L99.977 69.5073C178.888 60.364 336.781 42.5726 497.817 47.0691C658.852 51.5656 823.13 79.0575 983.367 77.8936C1143.6 76.7297 1299.9 47.6174 1378.01 32.8137L1456.15 18.1514L1468.92 108.718L1388.92 110.184C1308.93 111.651 1148.94 114.584 988.954 117.516C828.966 120.449 668.978 123.382 508.99 126.315C349.002 129.248 189.015 132.181 109.021 133.647L29.0267 135.113L21.0455 78.5092Z" fill="#FFDC8A"/>
</g>
<defs>
<clipPath id="clip0_90_28">
<rect width="1814.47" height="80.8567" fill="white" transform="matrix(0.99974 -0.0228149 0.14456 0.989496 -148.683 41.3969)"/>
</clipPath>
</defs>
</svg>
