<svg width="31" height="29" viewBox="0 0 31 29" fill="none" xmlns="http://www.w3.org/2000/svg">
<g clip-path="url(#clip0_272_1262)">
<mask id="mask0_272_1262" style="mask-type:luminance" maskUnits="userSpaceOnUse" x="2" y="0" width="31" height="29">
<path d="M2.88086 0.754028H32.8809V28.754H2.88086V0.754028Z" fill="white"/>
</mask>
<g mask="url(#mask0_272_1262)">
<path d="M10.3907 13.2803C10.3907 14.5005 11.9491 15.4908 9.98649 15.4908C8.02465 15.4908 3.68018 14.0171 3.68018 13.2803C3.68018 12.5435 6.45518 11.0698 8.41702 11.0698C10.3789 11.0698 10.3907 12.0594 10.3907 13.2803ZM25.6812 25.8788C25.6045 25.7542 25.4896 25.6539 25.3512 25.5907C24.0904 24.3337 24.9865 22.8593 24.9865 22.8593C24.9865 22.4525 25.776 21.3856 24.9865 21.3856L24.197 22.1224C23.4075 22.8593 23.4075 25.0698 23.4075 25.0698H21.8286C21.6192 25.0698 21.4184 25.1474 21.2704 25.2856C21.1223 25.4238 21.0391 25.6112 21.0391 25.8066C21.0391 26.002 21.1223 26.1895 21.2704 26.3276C21.4184 26.4658 21.6192 26.5435 21.8286 26.5435H22.7033L22.5281 26.6319C22.4368 26.6779 22.3562 26.7402 22.2908 26.8153C22.2254 26.8904 22.1764 26.9768 22.1468 27.0696C22.1171 27.1623 22.1073 27.2596 22.118 27.3559C22.1286 27.4521 22.1594 27.5455 22.2087 27.6307C22.258 27.7158 22.3248 27.7911 22.4053 27.8521C22.4857 27.9132 22.5783 27.9589 22.6777 27.9866C22.777 28.0142 22.8813 28.0234 22.9844 28.0134C23.0876 28.0035 23.1876 27.9747 23.2789 27.9287L25.3623 26.8773C25.4535 26.8313 25.5342 26.769 25.5996 26.6939C25.665 26.6189 25.7139 26.5325 25.7436 26.4398C25.7732 26.347 25.7829 26.2498 25.7722 26.1535C25.7615 26.0573 25.7306 25.9639 25.6812 25.8788ZM20.1549 25.8788C20.0782 25.7542 19.9633 25.6539 19.8249 25.5907C18.5641 24.3337 19.4602 22.8593 19.4602 22.8593C19.4602 22.4525 20.2496 21.3856 19.4602 21.3856L18.6707 22.1224C17.8812 22.8593 17.8812 25.0698 17.8812 25.0698H16.3023C16.0929 25.0698 15.8921 25.1474 15.744 25.2856C15.596 25.4238 15.5128 25.6112 15.5128 25.8066C15.5128 26.002 15.596 26.1895 15.744 26.3276C15.8921 26.4658 16.0929 26.5435 16.3023 26.5435H17.177L17.0018 26.6319C16.8175 26.7248 16.6803 26.8822 16.6205 27.0696C16.5606 27.2569 16.5829 27.4587 16.6824 27.6307C16.782 27.8026 16.9507 27.9307 17.1513 27.9866C17.352 28.0425 17.5683 28.0217 17.7525 27.9287L19.836 26.8773C19.9272 26.8313 20.0078 26.769 20.0733 26.6939C20.1387 26.6189 20.1876 26.5325 20.2172 26.4398C20.2469 26.347 20.2566 26.2498 20.2459 26.1535C20.2352 26.0573 20.2043 25.9639 20.1549 25.8788Z" fill="#FFDC8A"/>
<path d="M31.4737 14.2934C30.4142 14.2934 25.2337 17.6925 22.3529 10.3329C22.349 10.3226 22.3442 10.3152 22.3395 10.3049C21.949 8.99414 21.1575 7.81807 20.062 6.92058C18.9665 6.0231 17.6145 5.44312 16.1713 5.25162C14.0429 3.47141 10.7761 3.37709 10.7761 4.43814C10.7761 5.14404 11.684 5.34225 12.8003 5.51983C9.79396 6.4313 7.61816 9.06478 7.61816 12.175C7.61816 15.4753 10.0679 18.234 13.3608 18.9738C14.1526 22.0465 17.1092 24.3329 20.6445 24.3329C23.7653 24.3329 26.1187 23.0965 27.7419 21.3863C28.18 20.925 27.8303 21.8306 28.4066 21.5594C31.754 19.9885 32.4866 14.2934 31.4737 14.2934Z" fill="#DD2E44"/>
<path d="M13.1445 10.333C13.1445 10.5265 13.1036 10.7182 13.0242 10.897C12.9447 11.0758 12.8284 11.2383 12.6817 11.3752C12.535 11.512 12.3608 11.6205 12.1692 11.6946C11.9776 11.7686 11.7722 11.8067 11.5648 11.8066C11.3574 11.8066 11.152 11.7684 10.9604 11.6943C10.7688 11.6202 10.5948 11.5116 10.4481 11.3746C10.3015 11.2377 10.1852 11.0752 10.1059 10.8963C10.0266 10.7175 9.98579 10.5258 9.98584 10.3322C9.98594 9.94128 10.1524 9.56638 10.4487 9.29001C10.745 9.01364 11.1467 8.85844 11.5656 8.85853C11.9844 8.85863 12.3861 9.01403 12.6822 9.29054C12.9783 9.56704 13.1446 9.94201 13.1445 10.333Z" fill="#292F33"/>
<path d="M20.8893 13.2803C20.8893 13.2803 19.3103 20.6488 28.784 20.6488C29.5735 20.6488 28.784 22.1224 25.6261 22.1224C22.4682 22.1224 17.7321 18.4382 20.0998 14.0172C20.5995 13.0851 20.8893 13.2803 20.8893 13.2803Z" fill="#A0041E"/>
</g>
</g>
<defs>
<clipPath id="clip0_272_1262">
<rect width="30" height="28" fill="white" transform="matrix(-1 0 0 1 30.7637 0.754028)"/>
</clipPath>
</defs>
</svg>
