<svg width="41" height="35" viewBox="0 0 41 35" fill="none" xmlns="http://www.w3.org/2000/svg">
<path d="M30.1114 30.7416C28.5542 30.7416 26.9789 30.389 25.5564 29.6487C24.9677 29.3422 24.7826 28.6881 25.1432 28.1877C25.5036 27.6872 26.2732 27.53 26.8619 27.8364C29.8011 29.3662 33.6562 28.5782 35.4559 26.0801C37.2556 23.582 36.3286 20.305 33.3896 18.7753C32.8008 18.4688 32.6158 17.8147 32.9763 17.3143C33.3368 16.8139 34.1063 16.6565 34.695 16.9631C38.8096 19.1047 40.1074 23.6923 37.5878 27.1898C35.9393 29.4781 33.0585 30.7414 30.1114 30.7416Z" fill="#343739"/>
<path d="M24.2943 16.5129C21.9781 15.6166 19.5861 15.1989 17.3433 15.2138C16.112 14.2253 14.4514 13.6191 12.624 13.6191C8.82707 13.6191 5.74902 16.2355 5.74902 19.4629C5.74902 22.6903 8.82707 25.3066 12.624 25.3066L13.874 33.2754H28.874V28.0767L32.2768 29.3934C34.6759 24.9138 31.102 19.1471 24.2943 16.5129Z" fill="#484B4E"/>
<path d="M27.7133 23.1816C23.9657 23.1816 20.9276 25.764 20.9276 28.9495C20.9276 29.5301 21.0289 30.0906 21.2166 30.6191H19.8339C18.6135 30.6191 17.624 31.4602 17.624 32.4976V33.2754H23.2255H28.249H32.2011C33.6105 32.2191 34.499 30.6727 34.499 28.9495C34.499 25.764 31.461 23.1816 27.7133 23.1816ZM10.749 22.1191V31.6816C10.749 32.1212 10.5389 32.5197 10.1998 32.8086C9.85995 33.0968 9.3912 33.2754 8.87401 33.2754C7.83886 33.2754 6.99901 32.5615 6.99901 31.6816V22.1191M11.999 22.1191V31.6816C11.999 32.5619 12.8385 33.2754 13.874 33.2754C14.9096 33.2754 15.749 32.5619 15.749 31.6816V22.1191M4.56049 2.46289L7.07667 5.88487C7.45534 6.39998 8.11964 6.71289 8.83425 6.71289H15.2867C16.0013 6.71289 16.6656 6.39998 17.0443 5.88487L19.5605 2.46289L20.2285 9.91686C20.5434 13.933 16.7958 17.3379 12.0605 17.3379C7.32511 17.3379 3.57752 13.933 3.89252 9.91686L4.56049 2.46289Z" fill="#343739"/>
<path d="M11.999 14.4326C11.6607 14.4326 11.3504 14.3007 11.1474 14.0706L10.1514 12.9419C9.90786 12.6659 9.86942 12.3028 10.0508 11.9942C10.2323 11.6857 10.5972 11.4941 11.0029 11.4941H12.995C13.4007 11.4941 13.7656 11.6858 13.9471 11.9942C14.1286 12.3028 14.09 12.6658 13.8466 12.9419L12.8505 14.0706C12.6477 14.3007 12.3373 14.4326 11.999 14.4326ZM11.374 12.5566L11.999 13.2649L12.624 12.5566H11.374Z" fill="#8A9095"/>
<path d="M11.999 15.7441C11.6539 15.7441 11.374 15.5063 11.374 15.2129V13.6191C11.374 13.3258 11.6539 13.0879 11.999 13.0879C12.3442 13.0879 12.624 13.3258 12.624 13.6191V15.2129C12.624 15.5063 12.3442 15.7441 11.999 15.7441Z" fill="#91979C"/>
<path d="M20.7496 14.6818C20.709 14.6818 20.6679 14.6783 20.6264 14.6713L17.5014 14.1401C17.1629 14.0826 16.9435 13.8027 17.0111 13.5149C17.0789 13.2273 17.408 13.0409 17.7466 13.0983L20.8716 13.6295C21.2101 13.687 21.4296 13.9669 21.3619 14.2546C21.3025 14.5071 21.0415 14.6818 20.7496 14.6818ZM21.374 12.5566H17.624C17.2789 12.5566 16.999 12.3188 16.999 12.0254C16.999 11.732 17.2789 11.4941 17.624 11.4941H21.374C21.7192 11.4941 21.999 11.732 21.999 12.0254C21.999 12.3188 21.7192 12.5566 21.374 12.5566ZM3.2484 14.6818C2.95652 14.6818 2.69559 14.5071 2.63621 14.2546C2.56855 13.9668 2.78801 13.6869 3.12652 13.6294L6.25152 13.0982C6.59035 13.0408 6.91926 13.2273 6.98699 13.5149C7.05465 13.8026 6.8352 14.0825 6.49668 14.14L3.37168 14.6713C3.33027 14.6783 3.28895 14.6818 3.2484 14.6818ZM6.37402 12.5566H2.62402C2.27887 12.5566 1.99902 12.3188 1.99902 12.0254C1.99902 11.732 2.27887 11.4941 2.62402 11.4941H6.37402C6.71918 11.4941 6.99902 11.732 6.99902 12.0254C6.99902 12.3188 6.71918 12.5566 6.37402 12.5566Z" fill="#8A9095"/>
<path d="M10.749 30.6191V31.6816C10.749 32.1213 10.5389 32.5197 10.1998 32.8086C9.85996 33.0968 9.39121 33.2754 8.87402 33.2754C7.83887 33.2754 6.99902 32.5615 6.99902 31.6816V30.6191H10.749ZM15.749 30.6191V31.6816C15.749 32.1213 15.5389 32.5197 15.1998 32.8086C14.86 33.0968 14.3912 33.2754 13.874 33.2754C12.8389 33.2754 11.999 32.5615 11.999 31.6816V30.6191H15.749Z" fill="#91979C"/>
<path d="M15.124 10.9629C14.0901 10.9629 13.249 10.2479 13.249 9.36914C13.249 9.07576 13.5289 8.83789 13.874 8.83789C14.2192 8.83789 14.499 9.07576 14.499 9.36914C14.499 9.66206 14.7794 9.90039 15.124 9.90039C15.4686 9.90039 15.749 9.66206 15.749 9.36914C15.749 9.07576 16.0289 8.83789 16.374 8.83789C16.7192 8.83789 16.999 9.07576 16.999 9.36914C16.999 10.2479 16.1579 10.9629 15.124 10.9629ZM8.87402 10.9629C7.84012 10.9629 6.99902 10.2479 6.99902 9.36914C6.99902 9.07576 7.27887 8.83789 7.62402 8.83789C7.96918 8.83789 8.24902 9.07576 8.24902 9.36914C8.24902 9.66206 8.52941 9.90039 8.87402 9.90039C9.21863 9.90039 9.49902 9.66206 9.49902 9.36914C9.49902 9.07576 9.77887 8.83789 10.124 8.83789C10.4692 8.83789 10.749 9.07576 10.749 9.36914C10.749 10.2479 9.90793 10.9629 8.87402 10.9629Z" fill="#8A9095"/>
<path d="M11.9992 15.7423C11.297 15.7423 10.5948 15.6476 9.92657 15.4583C9.59914 15.3656 9.42211 15.0647 9.53125 14.7864C9.64032 14.5081 9.9943 14.3576 10.3218 14.4503C11.4034 14.7567 12.5949 14.7567 13.6765 14.4503C14.004 14.3576 14.3579 14.508 14.467 14.7864C14.5762 15.0647 14.3992 15.3656 14.0717 15.4583C13.4036 15.6476 12.7014 15.7423 11.9992 15.7423Z" fill="#91979C"/>
</svg>
