<svg width="70" height="39" viewBox="0 0 70 39" fill="none" xmlns="http://www.w3.org/2000/svg">
<path d="M12.1851 0.0115749C12.8204 -0.0324346 13.4711 0.0399533 14.0214 0.387174C14.5234 0.703967 14.8489 1.21774 14.9746 1.79366C15.1578 2.63295 14.9785 3.47877 14.2895 4.03102C13.898 4.34478 13.438 4.44031 12.9713 4.58774C12.6778 4.68054 12.3875 4.78707 12.0978 4.89118C9.52187 5.81674 7.14023 7.44366 5.65221 9.78504C3.58853 13.0322 3.43672 17.0764 4.2407 20.7465C4.26676 20.3751 4.25278 19.9979 4.26026 19.6257C4.26842 19.2177 4.30014 18.8057 4.33556 18.3993C4.6206 15.1286 5.61822 12.0208 7.87902 9.58184C9.78991 7.52022 12.5487 6.2387 15.2824 5.73882C16.2146 5.56832 17.1465 5.49874 18.0916 5.46467C18.3294 4.21889 19.1307 2.68705 19.8891 1.68644C20.2521 1.20735 20.8374 0.410393 21.4806 0.338688C21.8147 0.301432 22.1239 0.462673 22.336 0.715425C22.6048 1.03586 22.7789 1.48992 22.8952 1.88707C22.9841 2.1905 23.0414 2.61383 23.2434 2.86067C23.4318 3.09096 24.3646 3.2305 24.6708 3.33787C25.0133 3.4619 25.3467 3.60721 25.6708 3.77379C26.0973 3.99748 26.5298 4.34994 26.8652 4.69526C27.056 4.89171 27.2378 5.11782 27.4546 5.28506C27.8745 5.60899 28.3821 5.26017 28.8002 5.10333C29.0597 5.00598 29.3472 4.93238 29.6217 4.89588C29.913 4.85718 30.21 4.89027 30.4463 5.07981C30.6538 5.24621 30.8101 5.53182 30.8305 5.79846C30.8562 6.13566 30.7308 6.49813 30.6247 6.81303C30.0686 8.46529 29.0419 10.0901 27.9444 11.4341C28.0175 11.93 28.097 12.4274 28.1451 12.9264C28.4126 15.7015 27.9441 18.6537 26.1271 20.8525C25.1422 22.0445 23.6046 23.1898 22.0203 23.3298C21.0049 23.4195 20.0421 22.9733 19.2786 22.3359C19.1258 22.1964 18.9854 22.0454 18.8574 21.8827C18.5976 21.5484 18.3026 21.0243 18.3677 20.5854C18.4078 20.3159 18.5881 20.1117 18.8028 19.9592C19.2438 19.6461 19.8421 19.4763 20.3458 19.2819C21.2355 18.9387 22.331 18.4698 23.09 17.8929C23.8725 17.298 24.319 16.4599 24.4535 15.4901C24.5484 14.8057 24.4839 13.4338 24.0447 12.8805C23.8493 12.6344 23.5357 12.535 23.2324 12.5171C22.4665 12.4717 21.2513 12.7156 20.5668 12.577C20.3706 12.5372 20.2111 12.4491 20.0609 12.3176C19.8326 12.1176 19.6466 11.8546 19.4428 11.6289C18.8213 10.9408 18.0359 10.2506 17.1236 10.0025C17.0705 9.98804 17.0171 9.97461 16.9634 9.96222C16.8199 9.92878 16.6749 9.90417 16.5284 9.88839C16.0288 9.83421 15.1354 9.87124 14.7377 10.2122C14.4395 10.4679 14.3997 10.8794 14.4118 11.2481C14.4436 12.2158 14.8262 13.2676 15.231 14.1422C15.7941 15.3591 16.9348 17.0397 16.7793 18.4171C16.7412 18.7551 16.6003 19.0576 16.3256 19.2652C15.7517 19.6984 14.8577 19.641 14.188 19.5593C13.3324 19.4548 12.698 19.2378 12.1558 18.5332C10.9415 16.9554 10.914 13.4872 11.1634 11.588C8.15575 14.0858 5.65221 22.3359 11.1634 30.4468C11.5408 31.3512 11.4689 31.5175 11.573 32.2556C11.6262 32.6331 11.7138 33.3174 11.7138 33.7628C11.7138 34.0643 11.584 34.3579 11.4313 34.5529C11.2899 34.7336 11.1031 34.8238 10.878 34.8493C10.1181 34.9353 9.39355 34.408 8.82695 33.965C6.34463 32.0244 1.17622 20.2154 0.792021 17.1179C0.66204 16.0698 0.668461 15.0135 0.73447 13.9609C0.93673 10.7331 1.87174 7.62296 3.87357 5.05204C5.54715 2.90278 7.96308 1.2858 10.5345 0.432473C11.0742 0.2534 11.6191 0.0816868 12.1851 0.0115749Z" fill="#005472"/>
<path d="M17.3794 34.2302C14.1687 34.2302 12.3934 32.2093 12.3934 29.3764C12.3934 26.5434 14.2064 24.5226 17.0583 24.5226C20.2501 24.5226 21.6288 26.6568 21.6288 28.9042C21.6288 29.3575 21.591 30.0563 21.5344 30.2829H15.5474C15.7551 31.1895 16.4917 31.5105 17.436 31.5105C18.3614 31.5105 19.0414 31.2461 19.4002 30.434L21.4588 32.3982C20.7411 33.3236 19.5135 34.2302 17.3794 34.2302ZM17.0772 27.0534C16.1517 27.0534 15.5663 27.5444 15.4907 28.5265H18.5881C18.5314 27.5822 18.097 27.0534 17.0772 27.0534ZM26.699 34.2302C24.2816 34.2302 23.3939 32.8515 23.3939 31.0384V27.28H22.0719V24.7115H23.3939V23.6538L26.7935 22.1429V24.7115H29.0598V27.28H26.7935V30.5473C26.7935 31.0384 27.039 31.2839 27.4734 31.2839C27.8889 31.2839 28.3799 30.9817 28.6821 30.5096L29.6075 33.0592C29.2109 33.5125 28.2099 34.2302 26.699 34.2302ZM34.5289 34.2302C31.5449 34.2302 29.6751 32.1527 29.6751 29.3764C29.6751 26.6001 31.5449 24.5226 34.5289 24.5226C36.6064 24.5226 38.2306 25.5991 38.8917 27.0345L36.2476 28.772C35.9832 27.8088 35.4732 27.3367 34.68 27.3367C33.7923 27.3367 33.1313 27.9599 33.1313 29.3764C33.1313 30.7929 33.7923 31.4161 34.68 31.4161C35.4921 31.4161 35.9832 30.944 36.2476 29.9808L38.8917 31.7183C38.2306 33.1537 36.6064 34.2302 34.5289 34.2302ZM41.8313 34.2491C40.4715 34.2491 39.395 33.5692 39.395 31.8883C39.395 30.3774 40.2448 29.5464 42.3223 28.9042L44.8342 28.1299C44.7398 27.6011 44.4565 27.3744 43.701 27.3744C42.6245 27.3744 41.4158 27.9599 40.6415 28.8287L39.1305 26.3357C40.3015 25.278 41.9446 24.5226 43.8899 24.5226C46.2885 24.5226 47.7616 25.6935 47.7616 28.0921V30.9062C47.7616 31.3217 47.8749 31.4539 48.2149 31.4539H48.7626V34.0413H46.8362C45.7785 34.0413 44.7398 33.588 44.7398 32.266V31.5483C44.4565 32.757 43.7388 34.2491 41.8313 34.2491ZM42.4168 31.4161C42.4168 31.7183 42.6434 31.8883 43.1345 31.8883C44.2488 31.8883 44.7398 31.4539 44.7398 30.4907V30.2074L43.21 30.7551C42.5679 30.9817 42.4168 31.1706 42.4168 31.4161ZM53.0212 34.0413H49.6216V24.7115H53.0212V27.8655C53.3045 26.2601 54.1921 24.5226 56.0997 24.5226C57.7239 24.5226 58.3282 25.5425 58.3282 27.0911C58.3282 28.2243 57.9505 29.1875 57.6861 29.6597H54.5699C54.9098 29.2631 55.2875 28.5454 55.2875 27.9788C55.2875 27.45 55.0609 27.0911 54.5132 27.0911C53.7389 27.0911 53.0212 27.8277 53.0212 29.3386V34.0413ZM63.7469 34.2302C60.5362 34.2302 58.7609 32.2093 58.7609 29.3764C58.7609 26.5434 60.5739 24.5226 63.4258 24.5226C66.6176 24.5226 67.9963 26.6568 67.9963 28.9042C67.9963 29.3575 67.9585 30.0563 67.9019 30.2829H61.9149C62.1226 31.1895 62.8592 31.5105 63.8035 31.5105C64.7289 31.5105 65.4089 31.2461 65.7677 30.434L67.8263 32.3982C67.1086 33.3236 65.881 34.2302 63.7469 34.2302ZM63.4447 27.0534C62.5192 27.0534 61.9338 27.5444 61.8582 28.5265H64.9556C64.8989 27.5822 64.4645 27.0534 63.4447 27.0534Z" fill="#005472"/>
</svg>
