<svg width="156" height="180" viewBox="0 0 156 180" fill="none" xmlns="http://www.w3.org/2000/svg">
<path d="M59.1694 0.0595726C62.4392 -0.166931 65.7883 0.205627 68.6204 1.99266C71.2042 3.62309 72.8791 6.26733 73.5259 9.2314C74.4689 13.551 73.5462 17.9041 70 20.7464C67.9853 22.3612 65.6177 22.8528 63.2158 23.6116C61.7053 24.0892 60.2111 24.6375 58.72 25.1733C45.4627 29.9369 33.2051 38.3101 25.5468 50.3605C14.9257 67.0726 14.1444 87.8867 18.2822 106.775C18.4163 104.864 18.3444 102.923 18.3828 101.007C18.4248 98.9072 18.5881 96.7871 18.7704 94.6954C20.2374 77.8619 25.3718 61.8673 37.0075 49.3147C46.8422 38.7042 61.0406 32.1086 75.1103 29.5359C79.9082 28.6584 84.7041 28.3002 89.5684 28.1249C90.792 21.7133 94.9162 13.8294 98.8193 8.67959C100.688 6.21382 103.7 2.11216 107.011 1.74312C108.73 1.55137 110.321 2.38123 111.413 3.68207C112.797 5.33124 113.692 7.66813 114.291 9.71213C114.749 11.2738 115.043 13.4526 116.083 14.7229C117.053 15.9082 121.853 16.6263 123.429 17.1789C125.192 17.8173 126.908 18.5652 128.576 19.4225C130.771 20.5737 132.997 22.3877 134.723 24.165C135.705 25.1761 136.641 26.3398 137.757 27.2005C139.918 28.8677 142.53 27.0724 144.682 26.2652C146.018 25.7642 147.497 25.3854 148.91 25.1975C150.41 24.9984 151.938 25.1686 153.154 26.1442C154.222 27.0006 155.026 28.4705 155.131 29.8428C155.264 31.5783 154.618 33.4438 154.072 35.0645C151.21 43.5681 145.926 51.9308 140.277 58.8477C140.654 61.3998 141.063 63.9601 141.311 66.5282C142.687 80.8108 140.276 96.0045 130.925 107.321C125.856 113.456 117.942 119.35 109.788 120.071C104.562 120.533 99.6068 118.236 95.6773 114.956C94.8911 114.238 94.1685 113.46 93.5095 112.623C92.1723 110.903 90.6544 108.205 90.9895 105.946C91.1955 104.559 92.1238 103.508 93.2289 102.723C95.4981 101.112 98.5775 100.238 101.17 99.238C105.749 97.4713 111.387 95.0582 115.294 92.0891C119.321 89.0274 121.619 84.714 122.311 79.7224C122.8 76.2002 122.468 69.1396 120.207 66.2919C119.201 65.0254 117.587 64.5138 116.026 64.4213C112.085 64.1878 105.83 65.4433 102.308 64.7298C101.298 64.5252 100.477 64.0714 99.7036 63.3946C98.5285 62.3652 97.5715 61.0116 96.5228 59.8502C93.3241 56.309 89.2819 52.7564 84.5863 51.4798C84.3129 51.4053 84.0381 51.3362 83.7618 51.2724C83.0233 51.1003 82.277 50.9736 81.5229 50.8924C78.9516 50.6136 74.3539 50.8041 72.307 52.5591C70.7719 53.8752 70.5671 55.9926 70.6297 57.8906C70.7933 62.8709 72.7625 68.2843 74.8456 72.7855C77.7438 79.0483 83.6145 87.698 82.8145 94.7868C82.6182 96.5266 81.8933 98.0836 80.4792 99.1517C77.5258 101.382 72.9246 101.086 69.4775 100.665C65.0742 100.128 61.8091 99.0107 59.0185 95.3847C52.7692 87.2642 52.6274 69.4141 53.9113 59.6397C38.4317 72.495 25.5468 114.956 53.9113 156.7C55.8536 161.355 55.4836 162.211 56.0192 166.009C56.2929 167.952 56.7437 171.474 56.7437 173.767C56.7437 175.318 56.076 176.829 55.29 177.833C54.562 178.763 53.6007 179.227 52.4423 179.358C48.5311 179.801 44.8022 177.087 41.8862 174.807C29.1104 164.82 2.51028 104.042 0.53291 88.1003C-0.136059 82.706 -0.103016 77.2699 0.236716 71.8522C1.27768 55.2401 6.0899 39.2329 16.3926 26.0012C25.0061 14.9397 37.4401 6.61763 50.6741 2.2258C53.4518 1.30417 56.2564 0.420416 59.1694 0.0595726Z" fill="#005472"/>
</svg>
