<svg width="125" height="69" viewBox="0 0 125 69" fill="none" xmlns="http://www.w3.org/2000/svg">
<path d="M21.0032 0.0209519C22.1398 -0.057782 23.3039 0.0717212 24.2884 0.692904C25.1865 1.25965 25.7687 2.1788 25.9936 3.20913C26.3214 4.71064 26.0006 6.22382 24.7679 7.2118C24.0676 7.77312 23.2446 7.94402 22.4097 8.20778C21.8847 8.3738 21.3653 8.56439 20.847 8.75064C16.2386 10.4065 11.9778 13.3171 9.31574 17.5058C5.62379 23.315 5.3522 30.5501 6.79053 37.116C6.83715 36.4517 6.81215 35.7769 6.82553 35.1109C6.84012 34.381 6.89687 33.644 6.96024 32.9169C7.47017 27.0655 9.25494 21.5057 13.2996 17.1423C16.7182 13.454 21.6536 11.1614 26.5443 10.2671C28.2121 9.96205 29.8792 9.83757 31.57 9.77662C31.9954 7.54791 33.429 4.80743 34.7857 3.01732C35.4352 2.1602 36.4822 0.734444 37.633 0.606162C38.2306 0.53951 38.7838 0.827974 39.1632 1.28015C39.6443 1.85342 39.9557 2.66573 40.1638 3.37624C40.3228 3.91909 40.4252 4.67643 40.7867 5.11802C41.1238 5.53001 42.7925 5.77966 43.3403 5.97174C43.9531 6.19364 44.5494 6.4536 45.1294 6.75161C45.8924 7.1518 46.666 7.78235 47.2661 8.40014C47.6074 8.75159 47.9326 9.15611 48.3206 9.4553C49.0718 10.0348 49.9799 9.41078 50.7279 9.13019C51.1921 8.95602 51.7065 8.82435 52.1976 8.75905C52.7188 8.68982 53.2501 8.74901 53.6728 9.08811C54.044 9.3858 54.3236 9.89676 54.3601 10.3738C54.4061 10.977 54.1817 11.6255 53.992 12.1889C52.997 15.1448 51.1602 18.0517 49.1968 20.4561C49.3276 21.3432 49.4699 22.2331 49.5559 23.1258C50.0345 28.0905 49.1963 33.3719 45.9457 37.3058C44.1837 39.4382 41.4329 41.4871 38.5984 41.7375C36.7819 41.8981 35.0594 41.0998 33.6935 39.9595C33.4202 39.71 33.1691 39.4397 32.94 39.1487C32.4752 38.5507 31.9475 37.613 32.064 36.8278C32.1356 36.3456 32.4583 35.9803 32.8424 35.7075C33.6312 35.1474 34.7016 34.8436 35.6029 34.4959C37.1946 33.8818 39.1545 33.043 40.5122 32.0109C41.9122 30.9467 42.711 29.4473 42.9515 27.7122C43.1214 26.4879 43.006 24.0336 42.2201 23.0437C41.8706 22.6035 41.3096 22.4256 40.7669 22.3934C39.3969 22.3123 37.2228 22.7487 35.9982 22.5007C35.6472 22.4296 35.3618 22.2718 35.0931 22.0366C34.6846 21.6787 34.352 21.2082 33.9874 20.8045C32.8755 19.5736 31.4704 18.3387 29.8382 17.8949C29.7432 17.869 29.6477 17.845 29.5516 17.8228C29.2949 17.763 29.0355 17.719 28.7734 17.6907C27.8796 17.5938 26.2814 17.6601 25.5699 18.2701C25.0363 18.7276 24.9651 19.4636 24.9868 20.1233C25.0437 21.8545 25.7282 23.7363 26.4523 25.3009C27.4597 27.4779 29.5004 30.4846 29.2224 32.9487C29.1541 33.5534 28.9021 34.0947 28.4106 34.4659C27.3839 35.2411 25.7846 35.1383 24.5863 34.9921C23.0557 34.8052 21.9207 34.4169 20.9507 33.1565C18.7784 30.3338 18.7291 24.129 19.1754 20.7314C13.7946 25.1999 9.31574 39.9595 19.1754 54.4701C19.8506 56.0881 19.722 56.3856 19.9082 57.706C20.0033 58.3813 20.16 59.6056 20.16 60.4025C20.16 60.9418 19.9279 61.467 19.6547 61.816C19.4016 62.1392 19.0675 62.3005 18.6648 62.3461C17.3052 62.5 16.0091 61.5567 14.9954 60.7642C10.5545 57.2925 1.30813 36.1659 0.620789 30.6244C0.388252 28.7493 0.399738 26.8597 0.517831 24.9765C0.879676 19.202 2.55243 13.6378 6.13372 9.03842C9.1278 5.19336 13.4499 2.30057 18.0502 0.773946C19.0157 0.453581 19.9906 0.146383 21.0032 0.0209519Z" fill="white"/>
<path d="M30.295 61.4036C24.5511 61.4036 21.375 57.7882 21.375 52.72C21.375 47.6518 24.6186 44.0365 29.7206 44.0365C35.4308 44.0365 37.8973 47.8546 37.8973 51.8753C37.8973 52.6862 37.8297 53.9364 37.7284 54.3419H27.0176C27.3892 55.9637 28.707 56.5381 30.3964 56.5381C32.052 56.5381 33.2684 56.065 33.9103 54.6122L37.5932 58.1261C36.3093 59.7817 34.1131 61.4036 30.295 61.4036ZM29.7544 48.5641C28.0988 48.5641 27.0514 49.4426 26.9162 51.1996H32.4574C32.3561 49.5102 31.579 48.5641 29.7544 48.5641ZM46.9681 61.4036C42.6432 61.4036 41.0552 58.937 41.0552 55.6934V48.9696H38.69V44.3744H41.0552V42.4823L47.137 39.7792V44.3744H51.1916V48.9696H47.137V54.8149C47.137 55.6934 47.5763 56.1326 48.3534 56.1326C49.0967 56.1326 49.9752 55.592 50.5158 54.7473L52.1714 59.3087C51.4619 60.1196 49.6711 61.4036 46.9681 61.4036ZM60.9758 61.4036C55.6373 61.4036 52.2923 57.6869 52.2923 52.72C52.2923 47.7532 55.6373 44.0365 60.9758 44.0365C64.6925 44.0365 67.5983 45.9624 68.7809 48.5303L64.0506 51.6388C63.5775 49.9156 62.6652 49.0709 61.2461 49.0709C59.6581 49.0709 58.4755 50.1859 58.4755 52.72C58.4755 55.2541 59.6581 56.3691 61.2461 56.3691C62.699 56.3691 63.5775 55.5244 64.0506 53.8013L68.7809 56.9097C67.5983 59.4776 64.6925 61.4036 60.9758 61.4036ZM74.0399 61.4373C71.6072 61.4373 69.6813 60.221 69.6813 57.2138C69.6813 54.5108 71.2017 53.0241 74.9184 51.8753L79.4122 50.49C79.2433 49.544 78.7365 49.1385 77.3849 49.1385C75.459 49.1385 73.2966 50.1859 71.9113 51.7402L69.2082 47.2802C71.3031 45.388 74.2426 44.0365 77.7228 44.0365C82.0139 44.0365 84.6494 46.1314 84.6494 50.4225V55.4569C84.6494 56.2002 84.8521 56.4367 85.4603 56.4367H86.4401V61.0657H82.9937C81.1016 61.0657 79.2433 60.2548 79.2433 57.8896V56.6057C78.7365 58.7681 77.4525 61.4373 74.0399 61.4373ZM75.0873 56.3691C75.0873 56.9097 75.4928 57.2138 76.3713 57.2138C78.3648 57.2138 79.2433 56.4367 79.2433 54.7135V54.2067L76.5064 55.1866C75.3577 55.592 75.0873 55.9299 75.0873 56.3691ZM94.0588 61.0657H87.9769V44.3744H94.0588V50.017C94.5656 47.145 96.1536 44.0365 99.5662 44.0365C102.472 44.0365 103.553 45.8611 103.553 48.6317C103.553 50.659 102.877 52.3822 102.404 53.2269H96.8294C97.4376 52.5173 98.1133 51.2334 98.1133 50.2197C98.1133 49.2737 97.7079 48.6317 96.728 48.6317C95.3427 48.6317 94.0588 49.9494 94.0588 52.6525V61.0657ZM113.247 61.4036C107.503 61.4036 104.327 57.7882 104.327 52.72C104.327 47.6518 107.571 44.0365 112.673 44.0365C118.383 44.0365 120.85 47.8546 120.85 51.8753C120.85 52.6862 120.782 53.9364 120.681 54.3419H109.97C110.341 55.9637 111.659 56.5381 113.349 56.5381C115.004 56.5381 116.221 56.065 116.863 54.6122L120.545 58.1261C119.261 59.7817 117.065 61.4036 113.247 61.4036ZM112.707 48.5641C111.051 48.5641 110.004 49.4426 109.868 51.1996H115.41C115.308 49.5102 114.531 48.5641 112.707 48.5641Z" fill="white"/>
</svg>
