<svg width="44" height="36" viewBox="0 0 44 36" fill="none" xmlns="http://www.w3.org/2000/svg">
<path d="M5.2636 33.051H11.2598C12.2394 33.051 13.2949 30.2999 13.2949 30.2154C13.2949 30.131 12.8958 27.7639 12.8958 27.7639L13.8721 25.5903C13.8721 25.5903 12.7177 21.1749 12.5759 21.1095C12.434 21.0442 7.83624 17.3315 7.83624 17.3315C7.83624 17.3315 7.58557 23.3513 7.04136 25.1272C6.49715 26.9032 5.2636 30.7112 5.2636 30.7112H7.61526L7.36789 31.4357C7.36789 31.4357 5.2636 31.7844 5.2636 33.051Z" fill="#57544F"/>
<path d="M9.57437 32.8466C9.55984 32.9141 9.55212 32.9824 9.55128 33.0509H15.9532V30.9781L17.5364 30.7002L17.1505 28.8725L18.3478 28.8889C18.3478 28.8889 16.6327 24.4299 17.8728 22.6403C17.8728 22.6403 18.8062 24.2637 21.5504 24.4108V23.3213C21.5504 23.3213 24.3638 23.6073 24.7266 23.8306C25.0894 24.054 27.6258 24.4136 27.6258 24.4136V23.7789H27.6291L28.8 23.7489V22.6567C28.8 22.6567 30.4491 28.0526 32.9822 28.6873L34.0112 28.4149L35.0007 28.9297C35.0007 28.9297 34.8919 30.9617 36.8346 31.5964C36.8346 31.5964 34.562 31.4411 34.562 33.0509H39.8096C39.8096 33.0509 39.4402 29.6869 39.8096 28.8099C40.179 27.9328 40.3571 27.2927 40.212 26.9903C40.0669 26.688 35.258 21.5344 35.1491 19.8674C35.1491 19.8674 36.1848 24.0513 40.8057 24.0513L39.0741 22.6866L40.212 22.5967C40.212 22.5967 37.6426 21.4445 37.5338 20.1425C37.4249 18.8405 35.7362 13.3519 30.2677 13.3519C24.7992 13.3519 22.7938 13.1831 21.1381 12.7636C19.4824 12.3441 16.1742 10.9522 16.1742 10.9522L8.09675 9.9444C8.09675 9.9444 4.34992 18.9413 11.24 23.1524C11.4379 23.275 11.6457 23.3948 11.8634 23.5092H11.8667C11.867 23.5193 11.8681 23.5293 11.87 23.5392C11.926 23.9941 12.556 29.4827 10.7815 30.7002L11.6622 31.2395C11.6622 31.2395 9.80855 31.847 9.57437 32.8466Z" fill="#6B6861"/>
<path d="M6.55437 5.99565C6.2788 6.63487 5.94414 7.25565 5.55334 7.85251C4.96428 8.72414 3.85936 9.78835 4.08034 10.7466C4.30132 11.7049 4.74329 11.634 4.69415 12.3183C4.645 13.0025 3.97381 12.7386 4.05165 13.5497C4.12949 14.3609 5.52894 15.2729 5.52894 15.2729L5.5042 14.0158C5.5042 14.0158 7.07153 15.5365 6.20178 16.8543C6.20178 16.8543 8.64678 17.2395 8.74474 14.8471C8.74474 13.6105 7.71371 13.4887 7.6893 12.6577C7.66489 11.8266 7.83805 11.5553 7.83805 11.5553C8.87535 7.62615 8.78102 5.30025 6.55437 5.99565ZM14.5183 5.99565C14.7939 6.63487 15.1286 7.25565 15.5194 7.85251C16.1084 8.72414 17.213 9.78835 16.992 10.7466C16.7711 11.7049 16.3294 11.634 16.3786 12.3183C16.4277 13.0025 17.0989 12.7386 17.0211 13.5497C16.9432 14.3609 15.5438 15.2729 15.5438 15.2729L15.5675 14.0166C15.5675 14.0166 14.0005 15.5373 14.8699 16.8551C14.8699 16.8551 12.4253 17.2403 12.327 14.8479C12.327 13.6113 13.3584 13.4895 13.3824 12.6585C13.4065 11.8274 13.2337 11.5561 13.2337 11.5561C12.1443 8.71869 12.1871 6.61587 14.5183 5.99565Z" fill="#7D7870"/>
<path d="M6.49741 5.52855C6.5158 5.1734 6.62839 4.82591 6.82723 4.51064C7.16598 3.94253 7.69183 3.46482 8.34442 3.13233C8.99701 2.79984 9.7499 2.62605 10.5167 2.6309C10.5305 2.63212 10.5439 2.63545 10.5563 2.64071V2.6309C11.3231 2.62592 12.0761 2.79962 12.7288 3.13207C13.3815 3.46451 13.9075 3.94223 14.2463 4.51037C14.4452 4.82564 14.5578 5.17312 14.5762 5.52828C14.5762 6.80141 13.2239 7.91874 13.2239 7.91874C13.2239 7.91874 13.8196 9.07229 13.8196 9.88918C13.7536 10.6932 13.399 11.4628 12.801 12.0996C12.4086 12.4602 11.492 12.2085 11.492 12.2085C11.3755 12.3886 10.5559 12.4608 10.5559 12.4608V12.4161C10.5309 12.4461 10.5163 12.4608 10.5163 12.4608C10.5163 12.4608 9.69672 12.3886 9.58029 12.2085C9.58029 12.2085 8.66371 12.4608 8.27088 12.0996C7.67302 11.4627 7.31854 10.6932 7.25271 9.88918C7.25271 9.07202 7.84904 7.91901 7.84904 7.91901C7.84904 7.91901 6.49741 6.80168 6.49741 5.52855Z" fill="#8C887F"/>
<path d="M12.0795 5.29069C11.8341 5.29069 11.6897 6.18548 12.0218 6.3165C12.3539 6.44751 12.7586 5.98255 12.7144 5.68429C12.6909 5.56357 12.6116 5.4551 12.4931 5.38169C12.3747 5.30829 12.2265 5.27566 12.0795 5.29069Z" fill="#4F4D48"/>
<path d="M12.6626 5.03392C12.6758 5.03403 12.6888 5.03163 12.7006 5.0269C12.7125 5.02218 12.7228 5.01526 12.7309 5.00668C12.7424 4.99361 12.7479 4.97758 12.7464 4.96147V4.95956C12.7679 4.85524 12.3984 4.47063 12.1643 4.29766C12.148 4.2856 12.1265 4.27938 12.1046 4.28038C12.0828 4.28137 12.0623 4.2895 12.0477 4.30298C12.0331 4.31645 12.0255 4.33416 12.0267 4.35222C12.0279 4.37028 12.0378 4.3872 12.0541 4.39926C12.2616 4.55634 12.4385 4.73889 12.5785 4.94049C12.578 4.94448 12.578 4.94849 12.5785 4.95248C12.5767 4.96696 12.58 4.98156 12.5879 4.99455C12.5959 5.00754 12.6082 5.01837 12.6234 5.02575C12.6355 5.03108 12.6489 5.03389 12.6626 5.03392ZM11.6098 6.46341C11.6267 6.46334 11.6432 6.45899 11.657 6.45093C11.6708 6.44287 11.6813 6.4315 11.6871 6.41836C11.6928 6.40522 11.6935 6.39094 11.689 6.37746C11.6846 6.36398 11.6753 6.35196 11.6623 6.34301C11.507 6.23671 11.3852 6.1009 11.3074 5.94723C11.3034 5.93872 11.2974 5.93095 11.2898 5.92438C11.2821 5.91782 11.273 5.91259 11.2628 5.909C11.2527 5.90542 11.2417 5.90355 11.2307 5.90352C11.2197 5.90348 11.2087 5.90528 11.1985 5.9088C11.1884 5.91232 11.1791 5.91749 11.1714 5.92401C11.1637 5.93053 11.1577 5.93826 11.1536 5.94675C11.1496 5.95524 11.1477 5.96431 11.148 5.97342C11.1482 5.98253 11.1508 5.99151 11.1553 5.9998C11.2432 6.17386 11.3812 6.32758 11.5574 6.44761C11.5719 6.45798 11.5906 6.4636 11.6098 6.46341ZM13.4532 8.21812C13.4646 8.21803 13.4759 8.21589 13.4862 8.21185C13.4961 8.20816 13.5049 8.20288 13.5123 8.19633C13.5197 8.18979 13.5254 8.1821 13.5291 8.17371C13.5329 8.16533 13.5346 8.15641 13.5341 8.14748C13.5336 8.13855 13.531 8.12979 13.5265 8.12169C13.4803 8.03834 13.4275 7.95826 13.377 7.87655C13.2048 7.67343 13.1151 7.43042 13.1208 7.18251C13.1246 7.16478 13.1199 7.14652 13.1075 7.13167C13.0952 7.11683 13.0762 7.10662 13.0548 7.10324C13.0441 7.10139 13.0331 7.10135 13.0225 7.10312C13.0118 7.10488 13.0017 7.10842 12.9927 7.11351C12.9837 7.11861 12.9761 7.12515 12.9703 7.13275C12.9644 7.14035 12.9606 7.14884 12.9588 7.15772C12.9425 7.436 13.0383 7.71091 13.2313 7.93947C13.2814 8.01819 13.3319 8.098 13.3774 8.17889C13.384 8.19081 13.3948 8.20087 13.4082 8.20783C13.4217 8.2148 13.4373 8.21837 13.4532 8.21812Z" fill="#7D7870"/>
<path d="M9.60703 7.6972C9.87419 7.40874 10.584 7.62039 10.584 7.62039C10.584 7.62039 11.1981 7.40874 11.4653 7.6972C11.7324 7.98566 12.0807 8.80091 11.7786 8.86846C11.4765 8.93601 11.3482 8.94201 11.3136 8.68297C11.2909 8.52399 11.2319 8.37 11.1397 8.22917C11.1397 8.22917 11.0408 8.88807 11.2159 9.02236C11.3911 9.15665 11.3953 9.23292 11.3953 9.23292C10.8558 10.1972 10.2819 10.168 9.67663 9.23292C9.67663 9.23292 9.68223 9.15665 9.85638 9.02236C10.0305 8.88807 9.93224 8.22917 9.93224 8.22917C9.84027 8.37005 9.78141 8.52402 9.75875 8.68297C9.72379 8.94201 9.59549 8.93574 9.2937 8.86846C8.99191 8.80118 9.33987 7.98593 9.60703 7.6972Z" fill="#3D3C38"/>
<path d="M11.5152 12.3461C11.5337 12.3461 11.5516 12.341 11.5661 12.3316C11.5807 12.3221 11.5909 12.3089 11.5953 12.2941C11.5997 12.2793 11.5979 12.2637 11.5903 12.2498C11.5826 12.2359 11.5695 12.2246 11.5531 12.2175C11.3338 12.1236 11.2233 11.691 11.1656 11.4587L11.1527 11.4085C10.9997 10.8131 10.5554 10.806 10.5363 10.806C10.5144 10.806 10.4934 10.8132 10.478 10.826C10.4625 10.8387 10.4538 10.8561 10.4538 10.8741C10.4538 10.8922 10.4625 10.9095 10.478 10.9223C10.4934 10.935 10.5144 10.9422 10.5363 10.9422C10.5521 10.9422 10.8691 10.9572 10.9927 11.4369L11.0053 11.4865C11.0788 11.7765 11.1893 12.2148 11.4779 12.3382C11.4894 12.3433 11.5022 12.346 11.5152 12.3461Z" fill="#6B6861"/>
<path d="M8.99328 5.29066C9.23867 5.29066 9.38314 6.18545 9.051 6.31647C8.71887 6.44748 8.31417 5.98252 8.35837 5.68426C8.382 5.56357 8.46134 5.45514 8.57974 5.38175C8.69813 5.30835 8.84636 5.2757 8.99328 5.29066Z" fill="#4F4D48"/>
<path d="M8.41077 5.03389C8.42466 5.03404 8.43838 5.03132 8.45068 5.026C8.46597 5.01859 8.47833 5.00766 8.48624 4.99456C8.49414 4.98145 8.49726 4.96672 8.49521 4.95218C8.49569 4.94829 8.49569 4.94436 8.49521 4.94047C8.6356 4.73912 8.81245 4.55669 9.01963 4.39951C9.02771 4.39353 9.03428 4.3863 9.03898 4.37823C9.04367 4.37016 9.0464 4.3614 9.04699 4.35246C9.04759 4.34352 9.04605 4.33457 9.04246 4.32612C9.03887 4.31767 9.0333 4.30989 9.02606 4.30322C9.01883 4.29655 9.01008 4.29112 9.0003 4.28724C8.99053 4.28336 8.97992 4.28111 8.9691 4.28062C8.95827 4.28013 8.94743 4.2814 8.9372 4.28437C8.92697 4.28733 8.91755 4.29193 8.90947 4.29791C8.65559 4.47614 8.45605 4.7012 8.32699 4.9549C8.32537 4.96406 8.32602 4.9734 8.32891 4.98235C8.33181 4.99129 8.33688 4.99966 8.34382 5.00693C8.35175 5.01534 8.36191 5.02214 8.37351 5.02681C8.38512 5.03148 8.39786 5.03391 8.41077 5.03389ZM9.46193 6.46338C9.48115 6.46355 9.49979 6.45793 9.51437 6.44758C9.69041 6.32747 9.82841 6.17378 9.91643 5.99978C9.921 5.99148 9.92351 5.98251 9.9238 5.97339C9.92409 5.96428 9.92217 5.95521 9.91814 5.94672C9.91411 5.93824 9.90805 5.9305 9.90034 5.92398C9.89262 5.91747 9.8834 5.91229 9.87321 5.90877C9.86303 5.90525 9.8521 5.90346 9.84106 5.90349C9.83002 5.90352 9.8191 5.90539 9.80895 5.90897C9.7988 5.91256 9.78963 5.91779 9.78197 5.92436C9.77431 5.93092 9.76833 5.93869 9.76438 5.94721C9.68655 6.10088 9.56477 6.23668 9.40949 6.34298C9.3965 6.35193 9.38715 6.36395 9.38272 6.37743C9.37829 6.39091 9.37898 6.40519 9.3847 6.41833C9.39043 6.43147 9.40091 6.44285 9.41472 6.4509C9.42854 6.45896 9.44502 6.46332 9.46193 6.46338ZM7.68515 8.18486C7.69965 8.18488 7.7139 8.18175 7.72647 8.17577C7.73904 8.16979 7.74947 8.16118 7.75672 8.15081C8.00662 7.86191 8.13182 7.51209 8.11228 7.15742C8.11055 7.14854 8.10665 7.14005 8.10083 7.13245C8.09501 7.12485 8.08738 7.11831 8.07841 7.11321C8.06943 7.10812 8.0593 7.10458 8.04863 7.10282C8.03795 7.10105 8.02695 7.10109 8.0163 7.10294C7.99488 7.10632 7.97593 7.11653 7.96358 7.13137C7.95123 7.14622 7.94647 7.16448 7.95033 7.18221C7.96069 7.50475 7.84262 7.82119 7.61424 8.08299C7.60333 8.09864 7.60036 8.11722 7.60598 8.13468C7.61161 8.15213 7.62536 8.16704 7.64425 8.17614C7.6567 8.182 7.67082 8.18501 7.68515 8.18486Z" fill="#7D7870"/>
<path d="M9.55775 12.3461C9.57099 12.3461 9.58404 12.3434 9.59567 12.3382C9.88427 12.2148 9.99509 11.7765 10.0686 11.4865L10.0812 11.4369C10.2052 10.9553 10.5241 10.9425 10.5377 10.9422C10.5595 10.9422 10.5805 10.935 10.596 10.9223C10.6114 10.9095 10.6201 10.8922 10.6201 10.8741C10.6201 10.8561 10.6114 10.8387 10.596 10.826C10.5805 10.8132 10.5595 10.806 10.5377 10.806C10.5185 10.806 10.0743 10.8131 9.92121 11.4085L9.90835 11.4587C9.84964 11.691 9.74014 12.1236 9.52081 12.2175C9.5044 12.2246 9.49132 12.2359 9.48367 12.2498C9.47602 12.2637 9.47423 12.2793 9.47861 12.2941C9.48298 12.309 9.49326 12.3221 9.50779 12.3316C9.52232 12.341 9.54026 12.3461 9.55873 12.3461H9.55775Z" fill="#6B6861"/>
<path d="M9.7853 17.9745C9.7952 18.1134 9.9799 21.1641 11.2398 23.1525C11.4377 23.2751 11.6455 23.3949 11.8632 23.5093C11.8605 23.4925 11.8525 23.4766 11.8401 23.463C10.3361 21.5917 10.1184 17.9962 10.1151 17.9608C10.1147 17.9429 10.1099 17.9253 10.1009 17.9091C10.0919 17.8928 10.079 17.8782 10.0629 17.8662C10.0468 17.8542 10.028 17.8451 10.0074 17.8393C9.98693 17.8336 9.96521 17.8314 9.94362 17.8328C9.92196 17.8335 9.90067 17.8377 9.88099 17.8452C9.8613 17.8527 9.8436 17.8634 9.8289 17.8765C9.8142 17.8897 9.80278 17.9051 9.7953 17.9219C9.78782 17.9387 9.78442 17.9566 9.7853 17.9745ZM17.9264 22.6598C17.9577 22.6598 17.9884 22.6525 18.0149 22.6386C18.0413 22.6248 18.0625 22.605 18.0758 22.5816L19.0303 20.9081C19.042 20.8917 19.0495 20.8736 19.0522 20.8548C19.0549 20.836 19.0528 20.8169 19.0461 20.7988C19.0394 20.7807 19.0282 20.7639 19.0132 20.7496C18.9982 20.7353 18.9797 20.7237 18.959 20.7156C18.9383 20.7075 18.9157 20.703 18.8928 20.7025C18.8698 20.702 18.847 20.7055 18.8258 20.7127C18.8046 20.7199 18.7854 20.7306 18.7695 20.7443C18.7536 20.758 18.7414 20.7742 18.7335 20.792L17.777 22.4656C17.7584 22.4982 17.7563 22.5357 17.7712 22.5697C17.786 22.6036 17.8166 22.6313 17.8562 22.6467C17.8781 22.6554 17.9021 22.6599 17.9264 22.6598ZM28.7602 22.793C28.768 22.7934 28.7759 22.7934 28.7837 22.793C28.827 22.7879 28.866 22.7688 28.8923 22.74C28.9186 22.7111 28.9299 22.6748 28.9238 22.6391C28.4561 19.9256 27.0633 19.3075 27.0042 19.2824C26.9656 19.2676 26.9216 19.2657 26.8813 19.2771C26.8411 19.2885 26.8077 19.3123 26.7882 19.3435C26.7687 19.3748 26.7645 19.411 26.7766 19.4447C26.7888 19.4784 26.8162 19.5069 26.8532 19.5243C26.8749 19.5344 28.1586 20.1312 28.5973 22.6775C28.6033 22.7096 28.623 22.7389 28.6529 22.7601C28.6828 22.7813 28.7209 22.793 28.7602 22.793ZM35.1081 20.0048C35.1511 20.0048 35.1924 19.991 35.2232 19.9662C35.254 19.9414 35.2719 19.9077 35.273 19.8722C35.3195 18.4141 34.2073 16.7185 34.1598 16.6468C34.1383 16.616 34.103 16.5933 34.0615 16.5837C34.02 16.5741 33.9756 16.5782 33.9377 16.5953C33.8999 16.6124 33.8717 16.6411 33.8592 16.6751C33.8466 16.7092 33.8507 16.746 33.8706 16.7776C33.8815 16.7945 34.9874 18.4814 34.9432 19.8651C34.9426 19.883 34.9463 19.9008 34.9541 19.9175C34.9618 19.9342 34.9735 19.9495 34.9884 19.9624C35.0033 19.9754 35.0212 19.9858 35.041 19.9931C35.0608 20.0004 35.0821 20.0044 35.1038 20.0048H35.1081ZM15.2139 30.5309C15.2338 30.531 15.253 30.5251 15.268 30.5143C15.7949 30.1263 16.198 29.6372 16.4419 29.0901C16.6857 28.543 16.7627 27.9547 16.6661 27.3772C16.6647 27.3683 16.6612 27.3597 16.6557 27.352C16.6502 27.3442 16.6428 27.3375 16.6341 27.3322C16.6253 27.3268 16.6153 27.323 16.6048 27.3209C16.5942 27.3188 16.5832 27.3185 16.5725 27.32C16.5618 27.3214 16.5514 27.3244 16.5422 27.329C16.5329 27.3337 16.5248 27.3398 16.5183 27.347C16.5119 27.3542 16.5073 27.3624 16.5047 27.3711C16.5021 27.3798 16.5016 27.3888 16.5032 27.3977C16.5959 27.9525 16.5218 28.5176 16.2875 29.0433C16.0533 29.5689 15.666 30.0388 15.1598 30.4116C15.1516 30.4174 15.1448 30.4246 15.14 30.4326C15.1351 30.4406 15.1322 30.4493 15.1314 30.4583C15.1307 30.4672 15.132 30.4762 15.1355 30.4847C15.139 30.4932 15.1444 30.501 15.1516 30.5078C15.1594 30.515 15.169 30.5209 15.1798 30.5248C15.1905 30.5288 15.2021 30.5309 15.2139 30.5309ZM14.1268 31.1225C14.1481 31.1226 14.1686 31.1157 14.1839 31.1035C14.6444 30.73 15.01 30.2843 15.2592 29.7925C15.5084 29.3008 15.6362 28.7729 15.6351 28.2399C15.6349 28.2219 15.6262 28.2047 15.6107 28.192C15.5953 28.1793 15.5744 28.1721 15.5527 28.172C15.5418 28.1721 15.5311 28.174 15.5211 28.1774C15.5112 28.1809 15.5021 28.186 15.4945 28.1924C15.4869 28.1988 15.4809 28.2063 15.4769 28.2146C15.4728 28.2229 15.4708 28.2317 15.4709 28.2407C15.4719 28.7554 15.3485 29.265 15.108 29.7398C14.8674 30.2146 14.5146 30.6449 14.0701 31.0057C14.0584 31.0151 14.0503 31.0272 14.0469 31.0405C14.0436 31.0537 14.0451 31.0675 14.0512 31.08C14.0574 31.0926 14.0679 31.1033 14.0815 31.1109C14.0951 31.1184 14.1111 31.1225 14.1275 31.1225H14.1268ZM12.1409 31.1402C12.156 31.1402 12.1708 31.1368 12.1838 31.1304C12.544 30.945 12.8367 30.6825 13.031 30.3708C13.2252 30.0591 13.3137 29.7098 13.2871 29.3599C13.2872 29.3507 13.2848 29.3416 13.2802 29.3333C13.2756 29.3249 13.2689 29.3175 13.2604 29.3115C13.2519 29.3055 13.242 29.3012 13.2313 29.2987C13.2206 29.2963 13.2093 29.2958 13.1983 29.2973C13.1766 29.2987 13.1564 29.3073 13.1422 29.321C13.1281 29.3347 13.1211 29.3526 13.1228 29.3705C13.1476 29.6955 13.0655 30.0199 12.8851 30.3094C12.7046 30.5988 12.4327 30.8425 12.098 31.0147C12.0826 31.0224 12.0707 31.034 12.064 31.0479C12.0574 31.0617 12.0564 31.077 12.0613 31.0913C12.0661 31.1057 12.0766 31.1183 12.091 31.1273C12.1053 31.1363 12.1229 31.1411 12.1409 31.1411V31.1402ZM11.5822 30.864C11.5981 30.8642 11.6138 30.8604 11.6271 30.8531C12.0808 30.6099 12.4482 30.2715 12.6917 29.8726C13.0776 29.2409 13.1228 28.5035 13.1631 27.8534C13.164 27.8353 13.1564 27.8176 13.1417 27.8042C13.127 27.7908 13.1064 27.7827 13.0846 27.7817C13.063 27.7815 13.0421 27.788 13.026 27.8C13.01 27.812 13.0001 27.8285 12.9981 27.8463C12.9592 28.4834 12.9147 29.2052 12.5443 29.8113C12.3141 30.1887 11.9666 30.5089 11.5373 30.739C11.5224 30.747 11.511 30.7588 11.5048 30.7726C11.4986 30.7863 11.498 30.8014 11.503 30.8155C11.5081 30.8296 11.5185 30.842 11.5328 30.8508C11.547 30.8596 11.5644 30.8643 11.5822 30.8643V30.864Z" fill="#57544F"/>
<path d="M11.0558 30.7956C11.0671 30.7957 11.0783 30.7938 11.0887 30.7901C11.0991 30.7864 11.1084 30.7809 11.1161 30.7741C11.9227 30.0543 12.3765 29.1126 12.3896 28.132C12.39 28.1229 12.3881 28.1139 12.3841 28.1055C12.3801 28.097 12.374 28.0894 12.3663 28.0829C12.3586 28.0765 12.3494 28.0715 12.3392 28.0681C12.329 28.0647 12.3181 28.0631 12.3071 28.0633C12.2854 28.0633 12.2645 28.0704 12.2491 28.0831C12.2336 28.0957 12.2249 28.1129 12.2247 28.1309C12.2125 29.0778 11.7745 29.9872 10.9958 30.6823C10.9846 30.6919 10.9771 30.7041 10.9743 30.7172C10.9715 30.7303 10.9733 30.7438 10.9798 30.7561C10.9862 30.7683 10.9968 30.7787 11.0103 30.786C11.0238 30.7933 11.0396 30.7971 11.0558 30.797V30.7956Z" fill="#57544F"/>
<path d="M7.81646 30.3069C7.8369 30.307 7.85664 30.3008 7.87187 30.2895C9.05894 29.3937 9.77306 28.1491 9.86073 26.8231C9.86127 26.8142 9.85967 26.8052 9.85603 26.7968C9.85239 26.7884 9.84677 26.7806 9.83949 26.774C9.83222 26.7673 9.82343 26.7619 9.81363 26.7581C9.80384 26.7543 9.79322 26.7521 9.78239 26.7516C9.77156 26.7512 9.76074 26.7525 9.75052 26.7555C9.74031 26.7585 9.73092 26.7631 9.72288 26.7692C9.71484 26.7752 9.70831 26.7824 9.70367 26.7905C9.69902 26.7986 9.69635 26.8074 9.69581 26.8163C9.61078 28.1063 8.91604 29.3172 7.76105 30.1884C7.74874 30.1977 7.7401 30.2098 7.73627 30.2232C7.73244 30.2365 7.73359 30.2506 7.73959 30.2634C7.74558 30.2762 7.75613 30.2872 7.76985 30.295C7.78357 30.3028 7.79982 30.3069 7.81646 30.3069ZM6.00901 30.7112H6.34873C7.24903 30.2278 7.95417 29.5336 8.37387 28.7173C8.81755 27.8302 9.13842 26.9046 9.33036 25.958C9.33429 25.94 9.32962 25.9214 9.31732 25.9062C9.30502 25.8909 9.28605 25.8802 9.2644 25.8763C9.24303 25.8735 9.22117 25.8776 9.20335 25.8877C9.18554 25.8979 9.17315 25.9133 9.16875 25.9308C8.97903 26.8668 8.66262 27.7824 8.22544 28.6601C7.78507 29.5292 7.0047 30.2513 6.00901 30.7112ZM8.90852 30.381C8.91786 30.381 8.92713 30.3796 8.93589 30.3769C9.3249 30.2581 9.66862 30.0559 9.93181 29.7912C10.195 29.5264 10.3682 29.2086 10.4336 28.8704C10.4353 28.8615 10.4348 28.8525 10.4321 28.8438C10.4295 28.8351 10.4248 28.827 10.4183 28.8198C10.4119 28.8126 10.4037 28.8066 10.3944 28.8021C10.3851 28.7975 10.3748 28.7945 10.364 28.7933C10.3533 28.7917 10.3423 28.792 10.3317 28.7941C10.3211 28.7962 10.3111 28.8001 10.3024 28.8054C10.2937 28.8108 10.2863 28.8176 10.2809 28.8254C10.2754 28.8332 10.272 28.8418 10.2707 28.8508C10.2099 29.1646 10.0492 29.4594 9.80504 29.705C9.56087 29.9507 9.24201 30.1383 8.88114 30.2486C8.86274 30.254 8.84721 30.2645 8.83732 30.2783C8.82742 30.2922 8.82378 30.3085 8.82707 30.3244C8.83035 30.3403 8.84033 30.3547 8.85524 30.365C8.87015 30.3754 8.88902 30.3811 8.90852 30.381Z" fill="#383633"/>
<path d="M23.902 22.9918C25.0289 23.5273 26.289 23.8431 27.5861 23.9152V23.779C26.3176 23.7068 25.0858 23.3966 23.9844 22.8719C23.9656 22.8629 23.9432 22.8605 23.9222 22.8651C23.9012 22.8696 23.8832 22.8809 23.8723 22.8965C23.8611 22.9124 23.858 22.9313 23.8635 22.9491C23.8691 22.967 23.8829 22.9823 23.902 22.9918ZM21.6717 23.2941C21.6935 23.2944 21.7147 23.2875 21.7304 23.275C21.7461 23.2624 21.7551 23.2452 21.7555 23.2271C21.7558 23.2091 21.7475 23.1916 21.7322 23.1787C21.717 23.1657 21.6962 23.1582 21.6743 23.1579L19.979 23.1062C19.9575 23.1065 19.9369 23.1134 19.9211 23.1255C19.9053 23.1376 19.8955 23.1541 19.8936 23.1718C19.8932 23.1808 19.8949 23.1897 19.8987 23.1981C19.9025 23.2065 19.9082 23.2142 19.9156 23.2207C19.923 23.2273 19.9319 23.2326 19.9417 23.2363C19.9516 23.24 19.9622 23.2421 19.9731 23.2424L21.6687 23.2941H21.6717ZM32.8904 28.6234C32.9041 28.6234 32.9176 28.6204 32.9296 28.6149C32.9488 28.6063 32.9631 28.5917 32.9693 28.5744C32.9755 28.5571 32.9731 28.5385 32.9626 28.5226C31.879 26.8671 31.3298 25.0091 31.3679 23.1274C31.3681 23.1185 31.3661 23.1096 31.3621 23.1013C31.3582 23.093 31.3522 23.0854 31.3447 23.079C31.3372 23.0725 31.3282 23.0674 31.3182 23.0639C31.3083 23.0603 31.2976 23.0584 31.2868 23.0583C31.276 23.0581 31.2652 23.0597 31.2551 23.063C31.2451 23.0663 31.2359 23.0712 31.2281 23.0774C31.2203 23.0837 31.2141 23.0911 31.2098 23.0993C31.2055 23.1075 31.2032 23.1163 31.203 23.1253C31.1648 25.0305 31.7214 26.9117 32.8192 28.5877C32.8261 28.5983 32.8364 28.6073 32.8489 28.6136C32.8614 28.6198 32.8758 28.6232 32.8904 28.6234Z" fill="#57544F"/>
<path d="M34.3167 28.5866C34.3337 28.5865 34.3503 28.582 34.3642 28.5739C34.378 28.5657 34.3885 28.5542 34.3941 28.5409C34.3997 28.5276 34.4002 28.5132 34.3955 28.4997C34.3908 28.4861 34.3811 28.4742 34.3678 28.4654C33.4421 27.8562 32.7018 27.0767 32.2061 26.189C32.2016 26.1809 32.1952 26.1736 32.1872 26.1675C32.1793 26.1614 32.1699 26.1566 32.1598 26.1535C32.1496 26.1504 32.1388 26.149 32.128 26.1493C32.1171 26.1497 32.1065 26.1518 32.0966 26.1555C32.0868 26.1593 32.0779 26.1646 32.0705 26.1711C32.0632 26.1777 32.0574 26.1854 32.0537 26.1938C32.0499 26.2022 32.0482 26.2111 32.0486 26.2201C32.049 26.229 32.0515 26.2378 32.056 26.2459C32.5626 27.1531 33.3194 27.9495 34.2659 28.5716C34.2803 28.5812 34.2982 28.5865 34.3167 28.5866ZM37.0209 29.6963C37.0406 29.6962 37.0595 29.6904 37.0745 29.6798C37.0894 29.6693 37.0992 29.6547 37.1022 29.6386C37.1052 29.6226 37.1012 29.6062 37.0909 29.5924C37.0806 29.5786 37.0647 29.5683 37.046 29.5633C36.2334 29.3418 35.5112 28.9382 34.9599 28.3977C34.4087 27.8571 34.05 27.2007 33.9239 26.5017C33.9224 26.4928 33.9187 26.4842 33.9132 26.4764C33.9077 26.4686 33.9004 26.4618 33.8917 26.4563C33.8829 26.4509 33.873 26.4469 33.8624 26.4446C33.8519 26.4423 33.8408 26.4418 33.83 26.443C33.8192 26.4443 33.8088 26.4472 33.7993 26.4518C33.7899 26.4564 33.7816 26.4624 33.775 26.4696C33.7684 26.4768 33.7636 26.485 33.7609 26.4937C33.7581 26.5025 33.7574 26.5116 33.7589 26.5205C33.8898 27.2448 34.2616 27.9249 34.8329 28.4851C35.4042 29.0452 36.1525 29.4634 36.9945 29.693C37.0031 29.6953 37.012 29.6964 37.0209 29.6963ZM36.8511 32.2295C36.8674 32.2294 36.8834 32.2254 36.897 32.2179C36.9107 32.2104 36.9213 32.1997 36.9276 32.1872C37.2301 31.5768 37.3653 30.9187 37.3234 30.2601C37.3209 30.2426 37.3108 30.2264 37.2949 30.2146C37.2789 30.2029 37.2583 30.1964 37.237 30.1964C37.2151 30.1974 37.1947 30.2056 37.1801 30.2191C37.1655 30.2325 37.158 30.2502 37.1591 30.2683C37.2001 30.9066 37.0693 31.5445 36.7762 32.136C36.7711 32.1464 36.7691 32.1576 36.7704 32.1687C36.7718 32.1798 36.7764 32.1905 36.7839 32.1998C36.7915 32.2091 36.8017 32.2167 36.8136 32.222C36.8255 32.2272 36.8389 32.23 36.8524 32.23L36.8511 32.2295ZM37.7188 32.0946C37.7367 32.0946 37.754 32.0898 37.7683 32.081C37.7825 32.0721 37.793 32.0597 37.798 32.0456C38.2111 30.8564 38.0882 29.5838 37.452 28.4637C37.4419 28.4485 37.4251 28.437 37.4051 28.4316C37.3851 28.4262 37.3633 28.4274 37.3443 28.4348C37.3253 28.4423 37.3104 28.4555 37.3028 28.4717C37.2952 28.4879 37.2953 28.5059 37.3033 28.522C37.9224 29.6123 38.0419 30.851 37.6397 32.0086C37.6336 32.0259 37.6361 32.0446 37.6466 32.0604C37.6571 32.0763 37.6748 32.0881 37.6958 32.0933C37.7033 32.0946 37.7111 32.0951 37.7188 32.0946Z" fill="#57544F"/>
<path d="M36.6239 29.0387C36.643 29.0388 36.6615 29.0335 36.6763 29.0236C36.6912 29.0137 36.7014 28.9999 36.7053 28.9845C36.7092 28.9691 36.7065 28.953 36.6977 28.9391C36.6888 28.9251 36.6744 28.9141 36.6569 28.908C35.8221 28.5819 35.1689 28.0058 34.8296 27.2965C34.4907 26.5839 34.262 25.8387 34.1489 25.0788C34.1448 25.0611 34.1326 25.0455 34.115 25.035C34.0973 25.0246 34.0754 25.0202 34.0539 25.0227C34.0432 25.0241 34.0329 25.0273 34.0237 25.032C34.0145 25.0368 34.0065 25.0429 34.0002 25.0502C33.9939 25.0575 33.9894 25.0658 33.9869 25.0745C33.9845 25.0832 33.9842 25.0923 33.986 25.1011C34.1009 25.8726 34.3336 26.6289 34.6786 27.3521C35.0343 28.0929 35.7183 28.6941 36.5916 29.0333C36.6018 29.037 36.6128 29.0388 36.6239 29.0387ZM33.3454 26.6553C33.361 26.6555 33.3764 26.6521 33.3897 26.6454C33.403 26.6386 33.4137 26.629 33.4206 26.6174C33.4275 26.6059 33.4303 26.5929 33.4287 26.5801C33.4271 26.5673 33.4211 26.5551 33.4114 26.545C32.8808 25.9901 32.5687 25.3142 32.5172 24.6084C32.5153 24.5905 32.5052 24.5739 32.4889 24.562C32.4727 24.5501 32.4515 24.5438 32.4298 24.5443C32.408 24.5455 32.3876 24.5537 32.373 24.5672C32.3585 24.5807 32.3511 24.5985 32.3523 24.6165C32.4058 25.3494 32.7293 26.0513 33.2795 26.6281C33.2871 26.6366 33.2971 26.6434 33.3085 26.6482C33.32 26.6529 33.3326 26.6554 33.3454 26.6553Z" fill="#57544F"/>
</svg>
