<svg width="41" height="35" viewBox="0 0 41 35" fill="none" xmlns="http://www.w3.org/2000/svg">
<g clip-path="url(#clip0_266_1159)">
<path fill-rule="evenodd" clip-rule="evenodd" d="M32.2722 28.4444L29.3793 25.947C28.9676 25.5789 28.9146 24.9594 29.2666 24.5562C29.5085 24.2794 29.9165 24.1227 30.314 24.1344C30.4537 24.1429 30.4919 24.1519 30.5682 24.1695C30.7756 24.2173 30.9639 24.314 31.1196 24.4441L34.0131 26.9421L34.8832 26.1909C34.9743 26.1149 34.9928 26.1053 35.0402 26.0761C35.2303 25.9598 35.4586 25.8907 35.6919 25.8806C35.7719 25.8774 35.7903 25.8801 35.8156 25.8806C36.5768 25.9247 37.1866 26.6531 36.9091 27.307C36.8666 27.4074 36.8069 27.502 36.7319 27.5865C36.6986 27.6242 36.6623 27.6592 36.6242 27.6932L33.1429 30.6985C32.8352 30.9551 32.3774 31.0672 31.9669 30.9764C31.4617 30.8648 31.0697 30.4504 31.0432 30.0005C31.026 29.7046 31.1639 29.4086 31.402 29.1961L32.2722 28.4444Z" fill="#11191D"/>
<path fill-rule="evenodd" clip-rule="evenodd" d="M26.2241 29.7933L21.7687 25.9471C21.237 25.4689 21.3521 24.5887 22.053 24.2614C22.2469 24.1706 22.4665 24.1302 22.6893 24.1339C22.8456 24.1424 22.8715 24.1504 22.941 24.1658C23.1545 24.2125 23.3502 24.3129 23.509 24.4442L27.9644 28.2904L28.8345 27.5392C28.9256 27.4632 28.9447 27.4537 28.9914 27.425C29.1816 27.3081 29.4099 27.2396 29.6431 27.2295C29.7231 27.2258 29.7416 27.229 29.7668 27.2295C30.5336 27.2736 31.1342 28.0104 30.861 28.6559C30.8185 28.7558 30.7582 28.8503 30.6838 28.9348C30.6499 28.9725 30.6136 29.0081 30.5754 29.0421L27.0942 32.0469C26.6481 32.4193 25.8832 32.4501 25.4136 32.0957C24.9225 31.7249 24.8567 31.0024 25.325 30.57C25.3342 30.5615 25.3441 30.553 25.3533 30.5445L26.2241 29.7933Z" fill="#263238"/>
<path fill-rule="evenodd" clip-rule="evenodd" d="M32.797 17.2814C32.981 17.3961 33.0425 17.4152 33.1785 17.5762C33.3219 17.7457 33.4013 17.9465 33.4961 18.1404C34.573 20.3398 35.1305 22.7283 35.1379 25.1354V25.1651C35.1176 25.3484 35.1275 25.3994 35.0444 25.572C34.9213 25.8302 34.677 26.0406 34.3785 26.1474C34.1785 26.2191 34.1195 26.2106 33.9072 26.2287C30.1927 26.2287 26.4782 26.2334 22.7638 26.2287C17.7705 26.2095 12.8401 24.1626 9.71946 20.7042C7.469 18.2105 6.221 15.0698 6.21484 11.8987V8.16617C6.23577 7.98289 6.22592 7.93189 6.309 7.75923C6.43269 7.50157 6.67638 7.2912 6.97484 7.18442C7.17484 7.11323 7.23392 7.12173 7.44561 7.10367C9.71761 7.10367 11.989 7.10154 14.2604 7.10367C17.9742 7.11376 21.6684 7.98873 24.8432 9.60426L25.0487 9.73548C25.1989 9.88157 25.253 9.91185 25.3453 10.0935C25.5152 10.4282 25.4665 10.8447 25.2124 11.1454C25.077 11.3059 25.0161 11.325 24.8333 11.4397C23.6333 12.0374 22.4272 12.626 21.2333 13.2338C20.6395 13.5408 20.3915 14.2585 20.7515 14.8084C21.4548 15.8672 22.0622 17.0216 23.1225 17.8009C24.8364 19.0605 27.4641 19.3113 29.4912 18.3194C30.1742 17.9826 30.8542 17.6415 31.5342 17.301L31.5644 17.2856L31.7995 17.1942C32.0216 17.1528 32.0789 17.1262 32.309 17.1464C32.4795 17.1613 32.6395 17.2213 32.797 17.2814Z" fill="#7CB342"/>
<path fill-rule="evenodd" clip-rule="evenodd" d="M13.3058 9.7923C14.2171 9.80187 15.1144 10.1419 15.7328 10.7146C16.7187 11.6267 16.9119 13.1078 16.163 14.1889C15.5654 15.0522 14.4239 15.6132 13.2424 15.6036C12.3334 15.5957 11.4356 15.2551 10.8153 14.6814C10.0208 13.9461 9.71622 12.8401 10.0467 11.8743C10.4565 10.6774 11.8233 9.78327 13.3058 9.7923Z" fill="#263238"/>
<path fill-rule="evenodd" clip-rule="evenodd" d="M28.5819 18.6716C28.8945 18.5797 29.1991 18.4623 29.4914 18.3194C30.1745 17.9826 30.8545 17.6415 31.5345 17.301L31.5647 17.2856L31.7997 17.1942C32.0219 17.1527 32.0791 17.1262 32.3093 17.1464C32.4797 17.1612 32.6397 17.2213 32.7973 17.2813C32.9813 17.3961 33.0428 17.4152 33.1788 17.5761C33.3222 17.7456 33.4016 17.9464 33.4963 18.1403C34.5733 20.3397 35.1308 22.7282 35.1382 25.1353V25.1651C35.1179 25.3483 35.1277 25.3993 35.0447 25.572C34.9216 25.8302 34.6773 26.0406 34.3788 26.1473C34.1788 26.2191 34.1197 26.2106 33.9074 26.2286C30.193 26.2286 26.4785 26.2334 22.764 26.2286C18.3129 26.2116 13.9117 24.5833 10.7979 21.7799C12.6237 22.3202 14.5819 22.6135 16.6188 22.6135C21.2114 22.6135 25.404 21.1228 28.5819 18.6716Z" fill="#689F38"/>
<path fill-rule="evenodd" clip-rule="evenodd" d="M13.2702 11.9172C12.7016 11.9199 12.2099 12.4766 12.4277 12.9723C12.5951 13.3527 13.141 13.5731 13.5865 13.4297C14.008 13.2942 14.2714 12.8634 14.1422 12.4809C14.0345 12.1632 13.6727 11.9236 13.2874 11.9172C13.2819 11.9172 13.2763 11.9172 13.2702 11.9172Z" fill="white"/>
<path fill-rule="evenodd" clip-rule="evenodd" d="M7.15764 15.2126H5.51825C4.19394 15.2084 2.89118 14.6516 2.05856 13.7522C1.37426 13.0127 0.977948 12.0575 1.01733 11.1194C1.03949 10.595 1.56625 10.118 2.19887 10.0967C2.21549 10.0962 2.23149 10.0962 2.24749 10.0956H7.15764C7.17364 10.0956 7.18964 10.0962 7.20564 10.0967C7.24871 10.0988 7.25917 10.0988 7.30225 10.1031C7.87517 10.1615 8.36379 10.6014 8.38717 11.1162C8.38779 11.1305 8.38779 11.1443 8.3884 11.1581V14.1501C8.3761 14.6846 7.87579 15.1675 7.25425 15.2095C7.21117 15.2126 7.2001 15.2121 7.15764 15.2126Z" fill="#FFDC8A"/>
<path fill-rule="evenodd" clip-rule="evenodd" d="M7.44619 12.2206H2.24742C1.60804 12.2095 1.04127 11.7473 1.01727 11.198C0.947113 9.56757 2.29358 7.87554 4.20742 7.31667C4.6905 7.17589 5.20004 7.10523 5.71142 7.10364H7.44619C7.46281 7.10364 7.47942 7.10417 7.49604 7.10417C7.53973 7.10683 7.55081 7.10683 7.5945 7.11108C8.18158 7.1727 8.66465 7.63808 8.67696 8.16614V11.1581C8.67635 11.1964 8.67696 11.2059 8.67327 11.2437C8.62589 11.7515 8.10773 12.1983 7.49604 12.2196C7.47942 12.2201 7.46281 12.2201 7.44619 12.2206Z" fill="#FFDC8A"/>
<path fill-rule="evenodd" clip-rule="evenodd" d="M36.7204 3.42103C36.9204 3.48637 36.9801 3.49115 37.1517 3.60537C37.4797 3.82318 37.6465 4.18071 37.8404 4.5154C39.4367 7.27365 39.6311 10.6115 38.3253 13.5259C37.2785 15.8613 35.3044 17.862 32.7727 19.1375C31.8367 19.6061 30.9179 20.1288 29.9536 20.4938C27.8588 21.2859 25.3696 21.2503 23.3019 20.4077C21.8453 19.8138 20.6127 18.8379 19.793 17.6245C19.3783 17.0067 18.9419 16.4021 18.5536 15.7667C17.8466 14.6102 18.0336 13.085 19.0453 12.0783C19.3216 11.8031 19.6515 11.5699 20.017 11.3866L35.7856 3.52728C35.9801 3.45131 36.0262 3.41837 36.241 3.39393C36.4004 3.37587 36.5616 3.39818 36.7204 3.42103Z" fill="#D32F2F"/>
<path fill-rule="evenodd" clip-rule="evenodd" d="M22.4325 11.5024C22.995 11.0168 23.7783 10.9042 24.1802 11.2511C24.582 11.598 24.4516 12.2737 23.8891 12.7598C23.326 13.2454 22.5433 13.358 22.1414 13.0111C21.7396 12.6642 21.87 11.9879 22.4325 11.5024ZM24.0491 13.4388C24.3303 13.196 24.7223 13.1397 24.923 13.3129C25.1242 13.4866 25.059 13.8245 24.7777 14.0672C24.4959 14.3106 24.1045 14.3669 23.9039 14.1931C23.7027 14.02 23.7679 13.6815 24.0491 13.4388Z" fill="white"/>
<path fill-rule="evenodd" clip-rule="evenodd" d="M33.0057 4.91277L35.786 3.52728C35.9805 3.45131 36.0267 3.41837 36.2414 3.39393C36.4008 3.37587 36.562 3.39818 36.7208 3.42103C36.9208 3.48637 36.9805 3.49115 37.1522 3.60537C37.4802 3.82318 37.647 4.18071 37.8408 4.5154C39.4371 7.27365 39.6316 10.6115 38.3257 13.5259C37.279 15.8613 35.3048 17.862 32.7731 19.1375C31.8371 19.6061 30.9184 20.1288 29.9541 20.4938C27.8593 21.2859 25.3701 21.2503 23.3024 20.4077C22.6728 20.1511 22.0851 19.8228 21.5547 19.4356C28.2538 17.1809 33.0057 11.5545 33.0057 4.97759V4.91277Z" fill="#B71C1C"/>
<path fill-rule="evenodd" clip-rule="evenodd" d="M3.90236 9.16167C4.29436 8.82379 4.83959 8.74517 5.11959 8.98688C5.39898 9.2286 5.30852 9.69929 4.91652 10.0372C4.52452 10.3756 3.97928 10.4542 3.69928 10.2125C3.4199 9.97076 3.51036 9.50007 3.90236 9.16167ZM5.46421 9.88204C5.66052 9.7131 5.93313 9.67379 6.07282 9.79438C6.21252 9.91551 6.16759 10.1509 5.97129 10.3198C5.77559 10.4887 5.50298 10.528 5.36267 10.4074C5.22298 10.2869 5.26852 10.051 5.46421 9.88204Z" fill="white"/>
</g>
<defs>
<clipPath id="clip0_266_1159">
<rect width="40" height="34" fill="white" transform="translate(0.09375 0.871582)"/>
</clipPath>
</defs>
</svg>
